<?xml version="1.0" standalone="no"?>
<!DOCTYPE svg PUBLIC "-//W3C//DTD SVG 1.1//EN" "http://www.w3.org/Graphics/SVG/1.1/DTD/svg11.dtd" >
<svg xmlns="http://www.w3.org/2000/svg">
<metadata></metadata>
<defs>
<font id="titrebook" horiz-adv-x="1185" >
<font-face units-per-em="2048" ascent="1536" descent="-512" />
<missing-glyph horiz-adv-x="624" />
<glyph unicode="&#xfb01;" horiz-adv-x="972" d="M31 711q0 20 60.5 28.5t60.5 32.5q0 293 138 451.5t304 158.5q94 0 156.5 -55t62.5 -149q0 -37 -23.5 -60.5t-56.5 -23.5q-29 0 -53.5 21.5t-24.5 51.5q0 37 25 62q-39 74 -135 74q-117 0 -188.5 -111t-71.5 -340q0 -78 30 -78q262 0 478 6q4 2 10 2l4 2q10 -31 22 -43 q-18 -63 -18 -381q0 -205 23.5 -260t107.5 -55q-12 -37 -12 -47q-53 4 -127 4q-117 0 -213 -16q-4 16 -17 47q109 12 109 168l-2 350q0 49 -1 67.5t-17.5 41t-51.5 28.5q-41 -2 -87 -2t-74.5 -1t-58.5 -1t-46 -1t-30.5 -4t-20.5 -6t-6 -9v-396q0 -143 25.5 -184t103.5 -41 q-12 -37 -13 -47q-53 4 -127 4q-117 0 -213 -16q-4 16 -16 47q109 12 109 168v471h-2q-4 0 -43 -6.5t-60 -6.5q0 25 -20 54z" />
<glyph unicode="&#xfb02;" horiz-adv-x="1032" d="M31 711q0 20 60.5 28.5t60.5 32.5q0 168 49 289t123.5 176t156.5 75.5t151.5 1t106.5 -62.5q-4 84 -69 97q-2 12 -8.5 19t-8.5 13q2 2 31 6q31 6 74 23.5t73.5 33t34.5 15.5q10 -31 23 -43q-14 -45 -17 -106q-4 -186 0 -1039q0 -143 26 -184t103 -41q-12 -37 -12 -47 q-53 4 -127 4q-117 0 -213 -16q-4 16 -16 47q108 12 108 168l-2 864q0 57 -92 115q-121 76 -225 37q-135 -51 -135 -293q0 -12 -1 -41t0 -42.5t3 -33t9 -26.5t17 -7q12 0 49 7t50 7q0 -45 12 -94q-14 2 -46 -2t-56 -8l-27 -4q-10 0 -10 -16v-396q0 -143 25.5 -184t103.5 -41 q-12 -37 -13 -47q-53 4 -127 4q-117 0 -213 -16q-4 16 -16 47q109 12 109 168v471q0 2 -17.5 -1t-44 -7.5t-43.5 -4.5q2 23 -20 54z" />
<glyph unicode="&#xfb03;" horiz-adv-x="1714" d="M121 711q0 20 60.5 28.5t60.5 32.5q0 12 -1 38t-1 36q0 244 63.5 350.5t188.5 106.5q104 0 183 -39t79 -82q0 -10 -7.5 -14.5t-26 -18.5t-38.5 -47q-23 2 -48.5 33.5t-63.5 62.5t-89 31q-74 0 -92 -88q-14 -61 -14 -289q0 -78 31 -78q2 0 52 2t129 3t148 1h72 q2 150 43 269.5t107.5 190.5t141.5 106.5t150 35.5q94 0 156.5 -55t62.5 -149q0 -37 -23.5 -60.5t-55.5 -23.5q-29 0 -53.5 21.5t-24.5 51.5q0 37 24 62q-39 74 -135 74q-117 0 -188.5 -111t-71.5 -340q0 -76 27 -78h8q258 0 473 6q4 2 10 2l4 2q10 -31 23 -43 q-18 -63 -19 -262q0 -313 23 -375q39 -55 108 -59q-12 -37 -12 -47q-53 4 -127 4q-117 0 -213 -16q-4 16 -16 47q108 12 108 168l-2 350q0 49 -1 67.5t-17.5 41t-50.5 28.5q-41 -2 -87 -2t-75 -1t-58.5 -1t-46 -1t-31 -4t-20.5 -6t-6 -9v-396q0 -143 25.5 -184t103.5 -41 q-12 -37 -12 -47q-53 4 -127 4q-117 0 -213 -16q-4 16 -17 47q109 12 109 168v471v-2l-2 2q-23 20 -57 20l-365 -10q-10 0 -10 -16v-396q0 -143 25.5 -184t103.5 -41q-12 -37 -12 -47q-53 4 -127 4q-117 0 -213 -16q-4 16 -17 47q109 12 109 168v471l-41 -6q-41 -6 -64 -7 q0 25 -20 54z" />
<glyph unicode="&#xfb04;" horiz-adv-x="1765" d="M121 711q0 20 60.5 28.5t60.5 32.5q0 12 -1 38t-1 36q0 244 63.5 350.5t188.5 106.5q104 0 183 -39t79 -82q0 -10 -7.5 -14.5t-26 -18.5t-38.5 -47q-23 2 -48.5 33.5t-63.5 62.5t-89 31q-74 0 -92 -88q-14 -61 -14 -289q0 -78 31 -78q2 0 52 2t129 3t148 1h70 q2 276 125 408.5t278 132.5q125 0 185 -70q-4 84 -70 97q-2 12 -8 19t-8 13q2 2 30 6q31 6 74 23.5t74 33t35 15.5q10 -31 22 -43q-16 -55 -16 -106q-4 -137 -4 -381q0 -94 2 -309.5t2 -348.5q0 -143 25.5 -184t103.5 -41q-12 -37 -13 -47q-53 4 -126 4q-117 0 -213 -16 q-4 16 -17 47q109 12 109 168l-2 864q0 53 -81 108.5t-169 55.5q-100 0 -152.5 -86t-52.5 -293q0 -76 25 -76q16 0 52 7t52 7v-26v-16.5t2 -29t10 -22.5l-116 -12q-18 -6 -23 -16v-398q0 -143 25.5 -184t103.5 -41q-12 -37 -12 -47q-53 4 -127 4q-117 0 -213 -16 q-4 16 -17 47q109 12 109 168v471q0 20 -49 20q-229 0 -306 -5t-77 -21v-396q0 -143 25.5 -184t103.5 -41q-12 -37 -12 -47q-53 4 -127 4q-117 0 -213 -16q-4 16 -17 47q109 12 109 168v471l-41 -6q-41 -6 -64 -7q0 25 -20 54z" />
<glyph horiz-adv-x="2048" />
<glyph horiz-adv-x="2048" />
<glyph unicode="&#xd;" horiz-adv-x="681" />
<glyph unicode=" "  horiz-adv-x="624" />
<glyph unicode="&#x09;" horiz-adv-x="624" />
<glyph unicode="&#xa0;" horiz-adv-x="624" />
<glyph unicode="!" horiz-adv-x="350" d="M61 53q0 35 25 59.5t59.5 24.5t59 -24.5t24.5 -59.5t-24.5 -59.5t-59 -24.5t-59.5 24.5t-25 59.5zM63 864q0 252 9 377q4 47 51 95t100 50q13 -39 31 -53q-92 -436 -92 -766q0 -98 10 -221q-20 -12 -27 -41q-39 0 -60.5 214t-21.5 345z" />
<glyph unicode="&#x22;" horiz-adv-x="604" d="M119 1358l129 26l-35 -514l-59 -20q-31 334 -35 508zM375 1358l129 26l-35 -514l-59 -20q-31 334 -35 508z" />
<glyph unicode="#" horiz-adv-x="892" d="M63 920l29 106h154l35 145h-152l25 107h151l45 174l107 2l-43 -176h147l47 178h105l-47 -178h137l-29 -107h-131l-35 -145h125l-31 -106h-122l-43 -179h-107l41 179h-145l-43 -179h-105l43 179h-158zM352 1026h148l37 145h-150z" />
<glyph unicode="$" horiz-adv-x="1040" d="M100 330q0 23 4 32l76 9q0 -111 67.5 -171.5t176.5 -74.5l39 530q-70 16 -102.5 24.5t-88 33t-81 52.5t-47 77t-21.5 112q0 150 110.5 249.5t251.5 99.5h25l6 81l102 -2l-6 -90q133 -14 151.5 -14t29.5 22q33 0 43 -8q-10 -41 -11 -102q0 -8 5.5 -63.5t5.5 -90.5 q-29 0 -45 -6q0 164 -185 199l-33 -465q70 -16 103 -25.5t89 -33t82.5 -52t48.5 -78t22 -112.5q0 -170 -118 -282.5t-278 -127.5l-6 -84l-102 -2l6 88q-20 4 -55 12.5t-64 12.5t-57 4q-18 0 -42 -16.5t-38 -16.5h-4v17q0 41 -30 133t-30 129zM274 1010q0 -94 51.5 -142.5 t147.5 -76.5l31 448q-96 0 -163 -63.5t-67 -165.5zM528 123q98 12 167 87.5t69 186.5q0 98 -52.5 149.5t-148.5 82.5z" />
<glyph unicode="%" horiz-adv-x="1433" d="M61 968.5q0 94.5 26 183.5t93.5 159.5t167.5 70.5q156 0 261.5 -1t185 -5t106.5 -6t98.5 -10t85.5 -10l-639 -1385l-96 35l600 1303q-12 2 -58 12t-97.5 17t-98.5 7q-141 0 -198 -8q72 -47 104.5 -152.5t32.5 -209.5q0 -152 -70.5 -274t-214.5 -122q-98 0 -166.5 66 t-95.5 150.5t-27 179zM180 1030q0 -66 16.5 -154t61.5 -169.5t109 -81.5q70 0 110.5 90t40.5 190q0 113 -52 269.5t-136 156.5q-70 0 -110 -96t-40 -205zM799 364.5q0 94.5 25.5 184.5t93 160.5t167.5 70.5q98 0 167 -70.5t94.5 -160.5t25.5 -184q0 -152 -70.5 -274 t-214.5 -122q-98 0 -166.5 65.5t-95 150.5t-26.5 179.5zM918 426q0 -66 16 -154t61 -170t109 -82q70 0 110.5 90.5t40.5 190.5q0 113 -52 269.5t-136 156.5q-70 0 -109.5 -96t-39.5 -205z" />
<glyph unicode="&#x26;" horiz-adv-x="1398" d="M123 360q0 154 89 261.5t232 158.5q-166 98 -165 260q0 135 112.5 239.5t282.5 104.5q57 0 120.5 -26.5t63.5 -67.5q-31 -18 -55 -69h-17q-66 92 -153 92q-113 0 -169 -56.5t-56 -142.5q0 -92 57 -180t145 -125q-2 -6 -4 -30.5t-6 -43t-8 -18.5q-162 0 -243 -81t-81 -210 q0 -154 103.5 -270.5t267.5 -116.5q156 0 270 115q31 31 35 208q-2 115 -28.5 150t-100.5 35q12 37 12 47q53 -4 127 -4q158 0 254 16q5 -16 17 -47q-86 -6 -118 -38t-32 -128q4 -197 29.5 -264.5t109.5 -67.5q33 0 68 41q10 -18 45 -34q-57 -100 -199 -101q-137 0 -176 99 q-150 -98 -348 -99q-129 0 -233.5 37t-176 128t-71.5 228z" />
<glyph unicode="'" horiz-adv-x="358" d="M119 1358l129 26l-35 -514l-59 -20q-31 334 -35 508z" />
<glyph unicode="(" horiz-adv-x="460" d="M115 498q0 479 295 995q8 -37 30 -55q-96 -256 -145 -476t-49 -464q0 -248 49 -470.5t147 -478.5q-16 -12 -28 -49q-8 4 -37 54q-262 520 -262 944z" />
<glyph unicode=")" horiz-adv-x="575" d="M61 1444q16 12 29 49q8 -4 37 -53q262 -520 262 -944q0 -479 -295 -996q-8 37 -31 56q96 256 145.5 476t49.5 464q0 248 -49 470t-148 478z" />
<glyph unicode="*" horiz-adv-x="686" d="M61 1198q41 41 48 109q14 -1 178 -93q4 2 11 8.5t11 8.5q-39 139 -39 190v13h15q70 0 114 24q10 -4 11 -37q0 -51 -39 -190q6 -2 14 -7t10 -7q131 88 174 90q6 -74 49 -107q0 -14 -36.5 -24.5t-101 -18.5t-66.5 -8q-2 -2 -5 -11.5t-3 -11.5q141 -123 141 -147v-2 q-80 -25 -86 -76q-10 0 -22.5 14.5t-27 42t-24.5 48t-22.5 51t-14.5 35.5q-4 -2 -10 -2t-8 2q-86 -190 -105 -191h-6q-31 57 -88 86q6 12 35 41t64.5 60.5t43.5 39.5q-2 8 -8 21q-8 0 -37.5 4t-54 7t-53.5 8.5t-45.5 12.5t-16.5 17z" />
<glyph unicode="+" horiz-adv-x="851" d="M123 330v102h270v299h103v-299h260v-102h-260v-310h-103v310h-270z" />
<glyph unicode="," horiz-adv-x="423" d="M74 -160q47 10 68.5 50t23.5 79q-45 45 -45 84q0 35 24.5 59.5t59.5 24.5t59.5 -24.5t24.5 -59.5v-2q0 -63 -64.5 -146t-128.5 -83q-23 0 -22 16v2z" />
<glyph unicode="-" horiz-adv-x="638" d="M124 523.5q-3 17.5 7 35.5q221 98 440 129q14 -41 -32 -106q-51 -20 -151.5 -43t-176.5 -35l-76 -10q-2 2 -5 7t-6 22.5z" />
<glyph unicode="." horiz-adv-x="409" d="M121 53q0 35 24.5 59.5t59.5 24.5t59.5 -24.5t24.5 -59.5t-24.5 -59.5t-59.5 -24.5t-59.5 24.5t-24.5 59.5z" />
<glyph unicode="/" horiz-adv-x="858" d="M63 0l639 1384l97 -34l-639 -1385z" />
<glyph unicode="0" horiz-adv-x="1071" d="M61 657.5q0 122.5 26 243.5t78 232.5t148.5 180t223.5 68.5q125 0 220 -68.5t148 -180t79 -232.5t26 -243.5t-24.5 -238.5t-77 -219.5t-147.5 -167t-220 -63.5t-221.5 63.5t-150.5 167t-81 219.5t-27 238.5zM168 770q0 -115 6 -186q14 -102 64.5 -226.5t142.5 -227.5 t190 -103q106 0 185.5 84t114 197.5t34.5 232.5q0 88 -12 186q-8 76 -41 173t-82 194.5t-120.5 163t-147.5 65.5q-104 0 -183 -90t-115 -213t-36 -250z" />
<glyph unicode="1" horiz-adv-x="428" d="M31 1276q4 2 30 6q31 6 80 32.5t85 50.5t38 24q8 -25 23 -43q-12 -45 -17 -134q-4 -188 -5 -331.5t1 -317.5t2 -291q0 -143 25.5 -184t103.5 -41q-10 -45 -10 -49q-78 2 -162 2l-170 -10q-4 20 -16 49q111 14 108 164v899q0 121 -38 139q-4 2 -30 3t-32 1q-2 12 -8 18.5 t-8 12.5z" />
<glyph unicode="2" horiz-adv-x="933" d="M51 1233q31 94 126 122.5t239 28.5q184 0 319 -94t135 -260q0 -102 -68.5 -206.5t-165.5 -189.5t-194.5 -165t-166 -162.5t-68.5 -152.5q0 -29 12 -46.5t39 -24.5t47.5 -8t61.5 -1h12q86 0 127 1t102.5 6t88 16.5t57 33t42 54t11.5 79.5q10 0 30.5 -3t34.5 -5v-10 q0 -45 -16 -95.5t-16 -91.5q0 -12 4 -34.5t4 -32.5q-20 -10 -29 -23q-4 2 -82 10.5t-203.5 16.5t-222.5 8q-166 0 -207 -27q-4 25 -18 39.5t-20.5 15.5t-12.5 1q0 125 68.5 232.5t167 187t197 155.5t169 172.5t74.5 204.5q-8 340 -364 340q-156 0 -238 -170l-25 8 q-8 20 -20 38t-21 24z" />
<glyph unicode="3" horiz-adv-x="905" d="M61 125q59 8 105 84q0 -63 78 -111.5t196 -48.5q131 0 207 123t76 281q0 127 -82 207.5t-207 80.5q-37 0 -49 -6q-10 43 -12 49q96 29 163.5 111t67.5 186q0 109 -70.5 171.5t-173.5 62.5q-72 0 -127 -35t-67 -113h-2q-23 47 -66 54q8 82 123 121.5t240 39.5 q100 0 185 -76.5t85 -185.5q0 -49 -16.5 -96t-41 -81t-49 -59.5t-41 -42t-16.5 -18.5q0 -8 11 -8q119 -31 197.5 -127t78.5 -223q0 -180 -157.5 -339t-323.5 -159q-119 0 -207 51q-104 63 -105 107z" />
<glyph unicode="4" horiz-adv-x="882" d="M31 408q465 692 583 923q29 53 60 53q8 -27 31 -53v-4q-20 -80 -21 -223l-18 -664q82 0 108.5 39t26.5 117q37 -12 51 -12v-291q-29 -6 -51 -19q0 41 -24.5 58.5t-110.5 17.5v-80q0 -139 32.5 -182t114.5 -43q-12 -37 -12 -47q-109 4 -172 6q-27 0 -67 -4t-66 -8l-27 -4 q-4 23 -18 47q111 14 108 166v147q-90 2 -261 -2t-239 -4h-2q-6 37 -26 66zM172 449q-2 -6 3 -9.5t11 -3.5h375q8 0 8 15v604q0 29 -12 28q-8 0 -162.5 -257.5t-222.5 -376.5z" />
<glyph unicode="5" horiz-adv-x="880" d="M61 63q37 23 60 70h14q102 -104 246 -104q150 0 254 142t104 323q0 141 -79.5 233t-241.5 92q-41 0 -80 -13t-59.5 -26.5t-45 -34t-26.5 -22.5q-14 31 -41 41q0 12 5 31.5t5 25.5q12 100 12 250q0 78 -9 172t-11 121v4q33 6 53 18h2q139 -37 287 -36q143 0 227 43 q14 -25 27 -35q-4 -57 -91 -95t-159 -38q-47 0 -133 9t-125 9q-23 -59 -23 -176q0 -223 17 -223q27 27 93.5 47t141.5 20q70 0 130.5 -18.5t115.5 -59t87 -117.5t32 -181q0 -141 -59.5 -268.5t-183.5 -212.5t-285 -85q-66 0 -162.5 28t-98.5 66z" />
<glyph unicode="6" horiz-adv-x="903" d="M61 385q0 207 100.5 439.5t266.5 395t336 162.5q33 0 33 -12q0 -10 -6.5 -24.5t-6.5 -22.5q0 -2 4 -14q-20 16 -45 16q-141 0 -286.5 -179t-231.5 -390l-16 -43q45 37 119.5 53t126.5 16q190 0 288.5 -108t98.5 -266q0 -201 -115 -321t-272 -120q-154 0 -274 113 t-120 305zM172 438q0 -170 108.5 -289.5t233.5 -119.5q94 0 157.5 83t63.5 234q0 150 -84.5 260.5t-242.5 110.5q-117 0 -176.5 -80t-59.5 -199z" />
<glyph unicode="7" horiz-adv-x="854" d="M31 1077v10q0 41 19.5 129.5t19.5 129.5v8q0 8 45 26q41 -33 278 -32q70 0 202 16t193 16q17 -22 35 -32q-633 -1329 -647 -1379q-20 20 -80 31q18 20 56 94q63 119 285 615.5t222 552.5q-51 -8 -127.5 -14.5t-128.5 -6.5l-51 -2q-131 2 -197.5 -25.5t-66.5 -117.5 q-20 0 -57 -19z" />
<glyph unicode="8" horiz-adv-x="927" d="M61 344q0 86 26 150.5t82 112.5t98 73t120 63q-254 106 -254 312q0 131 85 231t222 100q145 0 250 -80.5t105 -228.5q0 -33 -5.5 -63.5t-13.5 -54t-21.5 -46t-25.5 -39t-29.5 -33t-30 -25.5t-30.5 -20.5t-26.5 -15.5t-24 -12t-17.5 -8q117 -35 206 -142.5t89 -248.5 q-2 -174 -123.5 -287t-287.5 -113q-158 4 -276 108.5t-118 266.5zM190 365q0 -125 83 -229.5t212 -104.5q125 0 192.5 82t67.5 202q1 263 -288 396q-119 -49 -193 -141.5t-74 -204.5zM256 1118q0 -82 20.5 -141t66.5 -96t80.5 -54.5t100.5 -42.5q76 29 115 96.5t39 151.5 q0 115 -66.5 203t-177.5 88q-88 0 -133 -57.5t-45 -147.5z" />
<glyph unicode="9" horiz-adv-x="903" d="M61 942q0 201 115 320.5t273 119.5q154 0 273.5 -112.5t119.5 -304.5q0 -207 -100.5 -439.5t-266.5 -395.5t-336 -163q-33 0 -33 13q0 8 6.5 22t6.5 25q0 2 -4 14q20 -16 45 -16q141 0 286.5 179t231.5 390l16 43q-45 -37 -119.5 -53.5t-125.5 -16.5q-190 0 -289 108.5 t-99 266.5zM168 1004q0 -150 85 -260.5t243 -110.5q117 0 176 80t59 198q0 170 -108.5 290t-233.5 120q-94 0 -157.5 -83t-63.5 -234z" />
<glyph unicode=":" horiz-adv-x="409" d="M121 196.5q0 34.5 24.5 59.5t59.5 25t59.5 -25t24.5 -59.5t-24.5 -59t-59.5 -24.5t-59.5 24.5t-24.5 59zM121 627q0 35 24.5 59.5t59.5 24.5t59.5 -24.5t24.5 -59.5t-24.5 -59.5t-59.5 -24.5t-59.5 24.5t-24.5 59.5z" />
<glyph unicode=";" horiz-adv-x="423" d="M74 -160q47 10 68.5 50t23.5 79q-45 45 -45 84q0 35 24.5 59.5t59.5 24.5t59.5 -24.5t24.5 -59.5v-2q0 -63 -64.5 -146t-128.5 -83q-23 0 -22 16v2zM121 627q0 35 24.5 59.5t59.5 24.5t59.5 -24.5t24.5 -59.5t-24.5 -59.5t-59.5 -24.5t-59.5 24.5t-24.5 59.5z" />
<glyph unicode="&#x3c;" horiz-adv-x="763" d="M63 465v8l590 438v-127l-436 -313l436 -307v-123z" />
<glyph unicode="=" horiz-adv-x="841" d="M123 270v103h633v-103h-633zM123 586v102h633v-102h-633z" />
<glyph unicode="&#x3e;" horiz-adv-x="763" d="M63 41v127l437 313l-437 307v123l590 -424v-8z" />
<glyph unicode="?" horiz-adv-x="794" d="M61 1217q0 74 100.5 120.5t215.5 46.5q176 0 266 -73.5t90 -190.5q0 -94 -70.5 -209.5t-173.5 -181.5q-53 -35 -70.5 -90t-17.5 -170v-80h-110q-10 31 -10 137q0 59 30.5 117.5t62.5 90.5t91 85q143 129 143 277q0 98 -72.5 161.5t-205.5 63.5q-45 0 -89 -21.5t-44 -62.5 q0 -20 8 -37l6 -14q-45 -14 -72 -64q-39 0 -58.5 28t-19.5 67zM260 53q0 35 24.5 59.5t59.5 24.5t59.5 -24.5t24.5 -59.5t-24.5 -59.5t-59.5 -24.5t-59.5 24.5t-24.5 59.5z" />
<glyph unicode="@" horiz-adv-x="1302" d="M123 399q0 199 154.5 309.5t373.5 110.5q133 0 249 -40t195 -126t79 -202q0 -160 -75 -246t-173 -86q-84 0 -129 82h-2q-84 -59 -162 -60q-119 0 -197 58.5t-78 193.5q0 133 82 199.5t199 66.5q80 0 137 -34l90 12v-283v-98q29 -76 76 -76q43 0 74 57.5t31 184.5 q0 150 -124 238t-284 88q-164 0 -275.5 -96.5t-111.5 -272.5q0 -164 110.5 -253t284.5 -89q78 0 150 39l43 -23q-111 -88 -240 -88q-184 0 -330.5 125t-146.5 309zM455 424q0 -106 67.5 -170t151.5 -64q41 0 70.5 26t33.5 69l-2 243q-51 82 -180 82q-141 0 -141 -186z" />
<glyph unicode="A" horiz-adv-x="1286" d="M10 37q8 4 26.5 10t31 11t27 15.5t20.5 22.5q68 119 273.5 595t205.5 571q0 20 -31 34q2 4 2 15q0 18 -8 43q10 4 31 4q33 0 63.5 5t61.5 13l32 10q0 -2 3.5 -4t3.5 -4q-16 -33 -17 -49q0 -84 191.5 -604t236.5 -602q29 -43 113 -72q-10 -47 -10 -55q-178 6 -181 6 q-33 0 -104.5 -6t-103.5 -6q0 6 -1.5 23.5t-3.5 27.5q6 2 28 7t33 9t27.5 13.5t23.5 27t7 40t-39 138t-75 220.5l-39 102q-432 -29 -439 -49q-2 -6 -38.5 -107.5t-57 -175t-20.5 -114.5q0 -25 7 -43.5t14 -28.5t24.5 -17.5t25.5 -9.5t30 -5t26 -3q-2 -4 -7 -49q-33 0 -94 3 t-92 3q-33 0 -98.5 -6t-98.5 -6v2q0 4 -10 45zM432 631q45 12 189.5 28.5t189.5 16.5q-147 440 -168 440q-4 0 -14 -14q-14 -29 -104.5 -245t-92.5 -226z" />
<glyph unicode="B" horiz-adv-x="1036" d="M31 33q74 6 103.5 26.5t40.5 81t11 205.5v471q0 369 -26 436q-20 49 -82 54h-27q0 2 7.5 23.5t7.5 23.5q2 0 14 -1t32.5 -3t43.5 -2q109 0 219 17t141 17q162 0 273.5 -92t111.5 -221q0 -76 -46 -154.5t-130 -130.5q123 -53 186.5 -154.5t63.5 -221.5 q0 -174 -119.5 -306.5t-316.5 -132.5q-45 0 -132.5 16.5t-127.5 16.5q-150 0 -232 -16q-4 16 -16 47zM309 274q0 -123 42 -182t161 -59q152 0 240 113.5t88 248.5t-99.5 225.5t-271.5 90.5q-158 0 -158 -33zM309 778q47 -10 86 -10q147 0 257 88t110 201q0 106 -89 179 t-239 73q-70 0 -96.5 -34t-26.5 -124q-2 -213 -2 -373z" />
<glyph unicode="C" horiz-adv-x="1259" d="M61 662q0 299 204 509.5t483 210.5q76 0 186 -15t153 -15q14 0 24.5 10t21.5 10q26 0 26 -78v-6v-37q0 -12 4 -30.5t12.5 -49t12.5 -59.5q-35 -6 -58 -31q-41 233 -399 234q-233 0 -381.5 -191.5t-148.5 -443.5q0 -258 158.5 -450.5t412.5 -192.5q244 0 371 119 q12 -43 55 -70q-55 -37 -87 -55.5t-124 -42t-209 -23.5q-305 0 -511 188.5t-206 508.5z" />
<glyph unicode="D" horiz-adv-x="1359" d="M31 33q96 8 123 45q32 44 32 249v13v145q-2 145 -2 236q0 434 -12 500q-12 72 -59 82q-18 4 -62 4q12 37 12 47q53 -4 127 -4t225.5 16t231.5 16q315 0 483 -186t168 -455q0 -143 -49 -279t-139 -247t-231.5 -178.5t-311.5 -67.5q-39 0 -125 16.5t-141 16.5 q-158 0 -254 -16q-4 16 -16 47zM309 265.5q0 -21.5 1 -43t2 -34t3 -23.5t4 -28q27 -47 107 -71.5t141 -24.5q186 0 325.5 100.5t205 250t65.5 319.5q0 160 -58 292t-194.5 220t-328.5 88q-223 0 -267 -88q-6 -78 -6 -502v-167v-130v-91v-67.5z" />
<glyph unicode="E" horiz-adv-x="1128" d="M31 33q86 6 116.5 37.5t32.5 130.5q4 387 4 510l-4 391q-2 129 -27.5 167t-101.5 38q12 37 12 47q53 -4 127 -4q580 0 797 20q10 -45 14.5 -94t4.5 -76v-26l-48 -9q-33 115 -278 115q-178 0 -252 -2q-78 -4 -96.5 -23.5t-20.5 -103.5q-2 -221 -2 -381q2 -12 27 -12 q287 0 364 55q23 18 56 119l55 -6q0 -29 -7 -95.5t-7 -101.5q0 -74 10 -164q-31 -6 -51 -12q-4 10 -12.5 41t-18.5 54.5t-27 35.5q-25 16 -86 20q-27 2 -54 3q-32 1 -64 -3q-58 -6 -111 -12t-55 -6q-16 0 -19 -6l2 -410q0 -115 17 -141q27 -49 176 -53h33q3 0 73 -1h42 q38 0 54 1q26 2 80 6t90.5 17.5t65.5 33.5q43 31 68 76l57 -16q-2 -37 -27.5 -109t-27.5 -107q-147 25 -711 25q-158 0 -254 -16q-4 16 -16 47z" />
<glyph unicode="F" horiz-adv-x="1017" d="M31 31q86 6 117.5 37.5t31.5 130.5l4 512l-4 391q-2 129 -27.5 167t-101.5 38q12 37 12 47q53 -4 127 -4q580 0 797 20q10 -45 14.5 -94t4.5 -76v-26l-48 -9q-33 115 -278 115q-178 0 -252 -2q-78 -4 -96.5 -23.5t-20.5 -103.5q-2 -221 -2 -381q2 -12 27 -12 q287 0 364 55q23 18 56 119l55 -6q0 -29 -7 -95.5t-7 -101.5q0 -74 10 -164q-31 -6 -51 -12q-4 10 -12.5 41t-18.5 54.5t-27 35.5q-25 16 -86 20q-27 2 -54 3q-32 1 -64 -3q-58 -6 -111 -12t-55 -6q-16 0 -19 -6q0 -225 2 -412q0 -145 31 -185t139 -40q-12 -37 -12 -47 q-94 4 -168 4q-158 0 -254 -16q-4 16 -16 47z" />
<glyph unicode="G" horiz-adv-x="1388" d="M61 662q0 299 204 509.5t483 210.5q76 0 186 -15t153 -15q14 0 24.5 10t21.5 10q26 0 26 -78v-6v-37q0 -12 4 -30.5t12.5 -49t12.5 -59.5q-35 -6 -58 -31q-41 233 -399 234q-233 0 -381.5 -191.5t-148.5 -443.5q0 -258 158.5 -450.5t412.5 -192.5q178 0 262 82 q33 33 33 147v107q0 98 -31.5 130t-117.5 38q12 31 16 47q96 -16 254 -17l127 4q0 -10 12 -47q-78 0 -103.5 -46t-25.5 -189v-223q-45 0 -182 -51.5t-238 -53.5q-305 2 -511 189.5t-206 507.5z" />
<glyph unicode="H" horiz-adv-x="1292" d="M31 33q86 6 116.5 37.5t32.5 130.5q4 397 4 520l-4 381q-2 129 -27.5 167t-101.5 38q12 37 12 47q53 -4 127 -4q158 0 254 16q4 -16 17 -47q-86 -6 -118 -38t-32 -130q-2 -240 -2 -401q90 6 321.5 12t354.5 18l-4 322q-2 129 -27.5 167t-101.5 38q12 37 12 47 q53 -4 127 -4q158 0 254 16q5 -16 17 -47q-86 -6 -118 -38t-32 -130q-2 -270 -2 -430l2 -451q0 -143 25.5 -184t103.5 -41q-12 -37 -12 -47q-53 4 -127 4q-158 0 -254 -16q-4 16 -17 47q86 6 117 37.5t33 130.5q4 367 4 501q-68 -6 -329 -12t-347 -20l2 -400 q0 -143 25.5 -184t103.5 -41q-12 -37 -12 -47q-53 4 -127 4q-158 0 -254 -16q-4 16 -16 47z" />
<glyph unicode="I" horiz-adv-x="491" d="M31 33q86 6 116.5 37.5t32.5 130.5q4 397 4 520l-4 381q-2 129 -27.5 167t-101.5 38q12 37 12 47q53 -4 127 -4q158 0 254 16q5 -16 17 -47q-86 -6 -118 -38t-32 -130q-2 -270 -2 -430l2 -451q0 -143 25.5 -184t103.5 -41q-12 -37 -12 -47q-53 4 -127 4q-158 0 -254 -16 q-4 16 -16 47z" />
<glyph unicode="J" horiz-adv-x="434" d="M-92 -352q0 4 72 67q12 10 10 11q14 0 47 -24t55 -17q72 18 85 161q10 108 10 466q0 110 -1 243q-2 334 -2 547q-2 129 -27.5 167t-101.5 38q12 37 13 47q53 -4 127 -4q158 0 254 16q4 -16 16 -47q-86 -6 -118 -38t-32 -130q-2 -272 -2 -1047q0 -113 -29.5 -228.5 t-86.5 -192.5q-72 -99 -205 -99q-33 0 -58.5 16.5t-25.5 47.5z" />
<glyph unicode="K" horiz-adv-x="1167" d="M31 33q86 6 116.5 37.5t32.5 130.5q4 397 4 520l-4 381q-2 129 -27.5 167t-101.5 38q12 37 12 47q53 -4 127 -4q158 0 254 16q5 -16 17 -47q-86 -6 -118 -38t-32 -130q-2 -256 -2 -416q365 375 414 436q55 68 55 97q0 18 -10 23t-29.5 6t-27.5 3q6 27 6 52h184 q119 0 186 6q0 -12 5 -53q-16 -4 -51 -13.5t-52.5 -14.5t-42 -16.5t-43.5 -27.5q-53 -45 -252.5 -250t-199.5 -225q0 -18 246.5 -318.5t303.5 -349.5q41 -35 123 -49q8 0 13 -2q-10 -37 -11 -47q-35 0 -103.5 4t-104.5 4h-222q-2 29 -6 45q2 0 36 5t47 16.5t13 39.5 q0 57 -202.5 303t-227.5 248l-47 -47l2 -340q0 -143 25.5 -184t103.5 -41q-12 -37 -12 -47q-53 4 -127 4q-158 0 -254 -16q-4 16 -16 47z" />
<glyph unicode="L" horiz-adv-x="1077" d="M31 33q86 6 116.5 38t32.5 130q4 221 4 520l-4 381q-2 129 -27.5 167t-101.5 38q12 37 12 47q53 -4 127 -4q158 0 254 16q4 -16 17 -47q-86 -6 -118 -38t-32 -130q-2 -270 -2 -430q0 -72 1 -251t1 -243q0 -92 38 -121.5t188 -29.5q3 0 73 -1h42q38 0 54 1q26 2 80 6 t90.5 17.5t65.5 33.5q43 31 68 76l57 -16q-2 -37 -27.5 -109t-27.5 -107q-147 25 -711 25q-158 0 -254 -16q-4 16 -16 47z" />
<glyph unicode="M" horiz-adv-x="1544" d="M31 33q51 6 76.5 44t31.5 124q29 430 29 929q0 135 -119 177q2 18 2 51l49 -6q23 -2 148 -2q10 0 20.5 -15.5t20.5 -48.5l10 -31q53 -109 154.5 -306t179.5 -357t143 -313q90 152 268.5 518t217.5 479q2 6 4 29.5t7 38t17 14.5q14 0 45 -3t45 -3q20 0 61.5 3t61.5 3 q2 -14 10 -49q-4 -2 -28.5 -7.5t-35.5 -12.5t-29.5 -25.5t-27 -55.5t-8.5 -92v-846q0 -143 26 -184t103 -41q-12 -37 -12 -47q-53 4 -127 4q-117 0 -213 -16q-4 16 -16 47q109 12 108 168l-4 747q0 47 -10 47q-14 0 -33 -39q-115 -215 -251 -515t-167 -437q-10 -41 -32 -41 q-29 0 -37 43q-20 104 -222 541.5t-245 453.5q-2 2 -5 -3t-3 -9q-18 -391 -19 -725q0 -141 25.5 -180t105.5 -39q-12 -37 -12 -47q-53 4 -127 4t-170 -16q-4 16 -16 47z" />
<glyph unicode="N" horiz-adv-x="1454" d="M31 33q86 6 117.5 37.5t31.5 130.5q-2 373 -14 991q0 33 -19.5 53.5t-64.5 41t-49 22.5q6 35 8 49q12 0 42 -3t44 -3q18 0 62 3t61 3q14 0 31 -29q53 -82 433 -526.5t472 -528.5q20 177 20 470q0 161 -6 356v2q-4 141 -25.5 173t-101.5 32q12 37 12 47q53 -4 127 -4 q98 0 195 16q4 -16 16 -47q-86 -6 -117.5 -38t-31.5 -130q-4 -623 -4 -688q0 -233 8 -397q0 -8 4 -31t4 -35q0 -10 -17.5 -20.5t-29.5 -10.5q-20 0 -57 66q-41 74 -455 564.5t-463 490.5q-20 0 -20 -132q0 -406 6 -688q2 -145 25.5 -185t101.5 -40q-12 -37 -12 -47 q-53 4 -127 4q-94 0 -191 -16q-4 16 -16 47z" />
<glyph unicode="O" horiz-adv-x="1404" d="M61 676q0 297 184.5 502.5t448.5 205.5q266 0 457.5 -203.5t191.5 -500.5q0 -317 -186 -514t-471 -197q-260 0 -442.5 207t-182.5 500zM195 719q0 -176 67.5 -329.5t196.5 -250t291 -96.5q215 0 329.5 173t114.5 417q0 178 -61.5 330.5t-183 250t-281.5 97.5 q-219 0 -346 -176.5t-127 -415.5z" />
<glyph unicode="P" horiz-adv-x="995" d="M31 33q74 6 103.5 26.5t40.5 81t11 205.5q0 709 -4 774q-8 150 -53 174q-23 12 -78 13q12 37 12 47q53 -4 127 -4q57 0 176 12t179 12q158 0 289 -107.5t131 -273.5q0 -213 -138.5 -315.5t-347.5 -102.5q-82 0 -170 17v-236q0 -121 5 -181t31 -91t52.5 -35t96.5 -4 q-12 -37 -13 -47q-106 4 -180 4q-158 0 -254 -16q-4 16 -16 47zM309 672q96 -23 176 -23q152 0 242 79t90 247q0 129 -104.5 228.5t-225.5 99.5q-47 0 -69.5 -2.5t-54 -19.5t-46.5 -54q-8 -35 -8 -555z" />
<glyph unicode="Q" horiz-adv-x="1437" d="M61 678q0 289 190.5 497.5t459.5 208.5q272 0 468.5 -205.5t196.5 -496.5q0 -311 -194.5 -509t-485.5 -198q43 -25 142.5 -99.5t182.5 -118.5t159 -44q35 0 72.5 14.5t65.5 31t32 16.5q2 -25 16 -39q-12 -55 -98 -90t-152 -35q-98 0 -195.5 53t-160 116.5t-132 117 t-120.5 53.5q-37 0 -102 -12q-2 16 -11 41q18 10 40 17t42.5 11t22.5 4q-195 68 -317 256.5t-122 409.5zM197 721q0 -272 162.5 -473t408.5 -201q215 0 337 175t122 415q0 274 -151.5 475t-393.5 201q-219 0 -352 -178.5t-133 -413.5z" />
<glyph unicode="R" horiz-adv-x="1243" d="M31 33q74 6 103.5 26.5t40.5 81t11 205.5q0 707 -4 782q-10 143 -55 166q-23 12 -76 13l15 47q2 0 16 -1t37.5 -2t46.5 -1q92 0 209 12t157 12q162 0 297.5 -104.5t135.5 -276.5q0 -289 -260 -381q74 -193 215 -368.5t286 -206.5q25 0 25 -23q0 -45 -105 -45 q-78 0 -160.5 58.5t-158.5 160t-125 180t-104 173.5q-14 25 -21 37q-27 -2 -78 -3q-82 0 -170 17v-201q0 -111 2 -165t7.5 -98t22.5 -57.5t37.5 -19.5t61.5 -6q-12 -37 -12 -47q-53 4 -127 4q-158 0 -254 -16q-4 16 -16 47zM309 672q96 -23 176 -23q152 0 242 79t90 247 q0 129 -104.5 228.5t-225.5 99.5q-94 0 -135 -31t-41 -127v-33v-80t-1 -107.5t-1 -127v-125.5z" />
<glyph unicode="S" horiz-adv-x="940" d="M61 248q0 23 5 33l75 8q0 -129 90.5 -189.5t223.5 -60.5q111 0 190.5 78t79.5 198q0 78 -36 138.5t-92 99.5t-123.5 72.5t-136.5 69.5t-125 78t-92 109.5t-36 153.5q0 150 110.5 249t251.5 99q51 0 150.5 -12t128.5 -12q16 0 29 22q33 0 43 -8q-10 -41 -11 -102 q0 -8 5.5 -63.5t5.5 -90.5q-29 0 -45 -6q0 209 -285 209q-96 0 -163.5 -63.5t-67.5 -165.5q0 -100 66.5 -171t160.5 -115t188 -92t161 -131t67 -202q0 -180 -131.5 -296t-303.5 -116q-49 0 -123.5 16.5t-115.5 16.5q-18 0 -42 -16.5t-38 -16.5h-4v17q0 41 -30 133t-30 129z " />
<glyph unicode="T" horiz-adv-x="1089" d="M31 1133q-1 39 31 121q26 68 27 111q0 8 -1 15q127 -28 434 -28h21q381 0 469 51q29 0 47 -17q-10 -31 -16.5 -98t-12.5 -115.5t-12 -48.5q-10 0 -28.5 2t-31.5 2q5 19 5 35q1 35 -23 61q-34 36 -86.5 46t-122.5 10q-70 -8 -96.5 -37t-26.5 -119q-2 -270 -2 -430l2 -426 q0 -143 25.5 -184t103.5 -41q-12 -37 -12 -47q-53 4 -127 4q-158 0 -254 -16q-4 16 -16 47q86 6 116.5 37.5t32.5 130.5q4 373 4 495l-4 381q-2 129 -29.5 167t-113.5 38q-92 0 -168 -38t-76 -128q-14 0 -30.5 11.5t-28.5 7.5z" />
<glyph unicode="U" horiz-adv-x="1325" d="M31 1307q12 37 12 47q53 -4 127 -4q158 0 254 16q4 -16 16 -47q-86 -6 -117.5 -38t-31.5 -130v-86l2 -477q2 -221 105.5 -365.5t308.5 -144.5q203 0 294 136t91 361q0 53 -1 119t-2.5 179.5t-1.5 207.5v29q0 133 -23.5 163t-150.5 30q12 37 13 47l366 2q2 -10 -5 -25.5 t-5 -21.5q-66 -6 -87 -32t-21 -122q4 -500 4 -578q0 -264 -123 -434t-367 -170q-152 0 -258 53.5t-162.5 152.5t-81 219t-24.5 276l-2 307v104q0 143 -25.5 184.5t-103.5 41.5z" />
<glyph unicode="V" horiz-adv-x="1224" d="M10 1311q6 25 6 47h9q35 0 102.5 -3t99.5 -3q35 0 98.5 4t82.5 4q0 -23 6 -47q-8 -4 -47 -13.5t-58.5 -26t-19.5 -52.5q0 -82 227 -668q2 -2 38 -98.5t60.5 -154.5t32.5 -58q10 0 19 22q23 63 58.5 160.5t55 151t47 131t43 122.5t35 103.5t29.5 93.5t20.5 73t14.5 64.5 t4 44.5q0 49 -24.5 68.5t-64.5 24t-50 8.5q6 25 6 49q35 0 106.5 -3t104.5 -3q23 0 78 3t83 3q0 -43 2 -49q-10 -8 -32.5 -12.5t-42 -16.5t-31.5 -23.5t-25.5 -39t-18.5 -39t-17.5 -47t-14.5 -41.5q-215 -588 -346 -988q-2 -6 -7 -29.5t-10 -36.5t-13.5 -31.5t-21.5 -28 t-30 -9.5q-10 0 -29.5 53.5t-40 120t-24.5 78.5q-352 973 -406 1036q-14 18 -31.5 29.5t-38 18t-24.5 8.5z" />
<glyph unicode="W" horiz-adv-x="1718" d="M10 1311q6 25 6 45h7q33 0 95 -3t91 -3q33 0 91 4t75 4q0 -20 6 -45q-8 -4 -43 -13.5t-54.5 -27t-19.5 -51.5q0 -90 211 -664q6 -16 31.5 -96t47 -136.5t30.5 -56.5q6 0 14 23q39 115 86 262t79 240.5t52 148.5q-66 178 -88 213q-14 18 -30.5 29.5t-35 17.5t-22.5 8 q6 25 6 45h6q33 0 95.5 -3t91.5 -3q33 0 91 4t75 4q0 -20 6 -45q-8 -4 -43 -13t-54.5 -26.5t-19.5 -52.5t20 -98q0 -14 122 -389t141 -375q8 0 16 23q27 80 65.5 198.5t60 183t50.5 152.5t43 139.5t29.5 106.5t20.5 90t5 59q0 49 -21.5 68.5t-59 24t-48.5 8.5q8 23 9 47 q31 0 105.5 -3t104.5 -3q23 0 72 3t76 3q0 -41 4 -47q-16 -2 -30.5 -7.5t-26 -10.5t-22.5 -17t-17 -18.5t-15.5 -23.5t-13.5 -24.5t-12 -29t-10 -27.5t-10.5 -30.5t-10.5 -28.5q-227 -674 -323 -983q-2 -8 -8.5 -38t-11.5 -47.5t-18.5 -34t-31.5 -16.5q-10 0 -28.5 52.5 t-36 120t-21.5 77.5l-207 609l-229 -723q-2 -8 -6.5 -30t-7.5 -37t-10 -32.5t-18.5 -27t-25.5 -9.5q-10 0 -27.5 50.5t-38 124t-20.5 75.5q-330 975 -373 1030q-14 18 -30.5 29.5t-35 18t-22.5 8.5z" />
<glyph unicode="X" horiz-adv-x="1216" d="M10 1311q6 12 13 49h6q35 0 101.5 -2t100.5 -2q31 0 91.5 2t89.5 2q0 -37 8 -53q-10 -2 -43 -5.5t-49.5 -10.5t-16.5 -25q0 -8 6 -23l310 -479q319 473 319 497.5t-24.5 34t-64.5 11.5t-50 4q10 14 10 45q35 0 106.5 -2t104.5 -2q25 0 78 2t84 2q0 -6 -2 -16.5t-2 -17.5 t4 -11q-15 -6 -35 -6q-57 -4 -102 -54.5t-207 -279.5q-111 -156 -184 -260l376 -582q75 -87 150 -87l18 1q-6 -14 -12 -51h-6q-33 0 -99.5 2t-101.5 2q-31 0 -91 -2t-89 -2q0 39 -8 55q41 0 59.5 2t33.5 13.5t15 33.5q0 6 -319 504q-315 -471 -316 -498q0 -29 25 -40 t64.5 -14t50.5 -5q-10 -14 -11 -47q-35 0 -105.5 2t-102.5 2q-25 0 -79.5 -2t-82.5 -2q0 4 1 13t1 18q0 14 -2 16q20 8 35 8q57 4 106 61.5t240 338.5q88 127 141 204l-371 572q-27 39 -51 57q-16 10 -39.5 15.5t-50.5 8.5t-31 3z" />
<glyph unicode="Y" horiz-adv-x="1103" d="M10 1311q6 12 6 45q39 0 99.5 -2t91.5 -2q131 0 211 14q0 -4 -10.5 -29.5t-8.5 -29.5q-10 -2 -37.5 -4.5t-40 -9.5t-12.5 -25q0 -37 122 -271.5t151 -234.5q-1 0 -1 1q0 8 56 103q61 103 129 228t68 166q0 25 -14.5 35t-48.5 12t-42 4q8 10 8 45q35 0 105.5 -2t103.5 -2 q25 0 70 2t74 2q0 -41 4 -45q-16 -6 -35 -6q-33 -2 -55.5 -14.5t-31.5 -24t-22.5 -34t-19.5 -30.5q-68 -90 -171.5 -273.5t-146.5 -246.5q0 -166 -2 -412q0 -143 26 -184t103 -41q-12 -37 -12 -47q-53 4 -127 4q-158 0 -254 -16q-4 16 -16 47q86 6 117.5 37.5t31.5 130.5 v456q-125 250 -295 545q-33 57 -73 82q-16 10 -101 27z" />
<glyph unicode="Z" horiz-adv-x="1136" d="M31 33q0 -2 27.5 30.5t63.5 78.5t54 73l662 1055q0 8 -17.5 13t-50.5 6q-34 1 -60 2q-13 0 -30 0.5t-38 -0.5q-42 -1 -54 -1q-92 0 -152.5 -5t-123 -21.5t-93.5 -53t-31 -94.5q-10 0 -31.5 11.5t-27.5 11.5h-2q0 41 17.5 109.5t17.5 115.5q0 2 13 8t30.5 11.5t19.5 7.5 q66 -39 297 -39q150 0 292 8t222 8q33 0 33 -41q0 -8 -53 -61q-115 -125 -429.5 -626t-320.5 -556l10 -8q45 -10 134 -10q477 0 581 65q51 33 66 109q4 0 10 1t10 1q18 0 49 -13q-4 -31 -25.5 -106.5t-21.5 -138.5q0 -4 2 -9v-6q-12 -4 -16 -4q-6 0 -15.5 2t-13.5 2 q-10 0 -16 -6q-2 20 -27 27q-43 10 -469 10q-72 0 -212 -2t-212 -2q-70 0 -69 37z" />
<glyph unicode="[" horiz-adv-x="634" d="M123 -457q41 119 52 221.5t11 270.5q0 6 1 82t0 105.5t-5 91t-15 104.5t-28 80q45 109 45 407q0 14 1 96t0 117t-5 97.5t-13 102.5t-26 68q-14 18 -16 31q49 12 53 37q125 -14 201 -14q25 0 71 5t64 5q2 -23 14 -55q-23 -25 -85 -34t-110 -19.5t-48 -41.5v-1611 q0 -47 25.5 -62.5t60.5 -11.5t82 -5t79 -42q-18 -23 -26 -47q-33 4 -51 4q-174 0 -277 -21q-10 23 -55 39z" />
<glyph unicode="\" horiz-adv-x="851" d="M-4 1384l90 50l770 -1420l-90 -49z" />
<glyph unicode="]" horiz-adv-x="634" d="M123 1391q18 23 27 47q33 -4 51 -4q174 0 276 20q10 -23 55 -39q-41 -119 -52 -221t-11 -270q0 -6 -1 -82t0 -105.5t5 -91t15.5 -104.5t27.5 -80q-45 -109 -45 -408q0 -14 -1 -96t0 -117t5 -97t13.5 -102t25.5 -69q14 -18 16 -31q-49 -12 -53 -37q-125 14 -201 15 q-25 0 -70.5 -5.5t-64.5 -5.5q-2 23 -14 56q23 25 85 34t110.5 19t48.5 41v1612q0 47 -26 62.5t-60.5 11t-81.5 5t-80 42.5z" />
<glyph unicode="^" horiz-adv-x="897" d="M201 713l329 676l338 -680l-90 -45l-246 501l-241 -497z" />
<glyph unicode="_" horiz-adv-x="1114" d="M-20 -33v76h1146v-76h-1146z" />
<glyph unicode="`" horiz-adv-x="512" d="M119 1032q20 41 26 90h2q25 0 142 -66.5t147 -113.5q-8 -6 -24 -29q-221 80 -293 119z" />
<glyph unicode="a" horiz-adv-x="851" d="M61 188q0 113 147.5 199t354.5 86q-4 242 -194 242q-164 0 -201 -94h-1q-7 0 -73 67q92 92 312 92q115 0 201.5 -79.5t86.5 -223.5q0 -14 -1 -73.5t-1 -133.5q0 -143 25.5 -184t103.5 -41q-12 -37 -12 -47q-53 4 -127 4q-16 0 -27.5 -1t-18.5 -1t-17.5 -3t-14.5 -4 t-20.5 -8.5t-24.5 -9.5v76h-6q-23 -41 -92.5 -63.5t-141.5 -22.5q-121 0 -189.5 60.5t-68.5 162.5zM199 193q0 -78 46 -118t103 -40q201 0 213 272v86q-8 12 -45 13q-131 0 -224 -52t-93 -161z" />
<glyph unicode="b" horiz-adv-x="935" d="M61 1380q2 2 31 6q31 6 74 23.5t73.5 33t34.5 15.5q10 -31 23 -43q-14 -45 -16 -106q-6 -201 -7 -373q0 -33 1 -102.5t1 -104.5q96 51 220 51q170 0 293.5 -105.5t123.5 -296t-128 -300t-300 -109.5q-117 0 -235 49l-4 2h-4q-14 0 -70.5 -23.5t-83.5 -31.5q-4 16 -16 47 q78 10 78 230l-3 962v10q0 43 -2 63.5t-18 42t-49 28.5q-2 12 -8.5 19t-8.5 13zM279 639l8 -391q0 -111 84 -161t174 -50q102 0 159.5 94t57.5 207q0 154 -106.5 263.5t-227.5 109.5q-90 0 -149 -72z" />
<glyph unicode="c" horiz-adv-x="757" d="M61 379q0 188 127 294.5t299 106.5q49 0 122 -17.5t100 -37.5l-78 -115q-23 45 -90.5 73t-118.5 28q-84 0 -149.5 -72t-65.5 -217q0 -154 106.5 -269.5t225.5 -115.5q84 0 135 41l43 -55q-100 -53 -240 -54q-170 0 -293 107.5t-123 302.5z" />
<glyph unicode="d" horiz-adv-x="989" d="M31 379q0 188 127 294.5t299 106.5q113 0 209 -49v473v10q0 43 -2 63.5t-18.5 42t-49.5 28.5q-2 12 -8 19t-8 13q2 2 30 6q31 6 74 23.5t73.5 33t35.5 15.5q10 -31 22 -43q-16 -55 -16 -106q-4 -137 -4 -381q0 -94 2 -309.5t2 -348.5q0 -143 25.5 -184t103.5 -41 q-12 -37 -13 -47q-16 4 -65 4q-123 0 -172 -37q-4 16 -16 47q0 6 1 13.5t1 11.5q-100 -68 -218 -68q-170 0 -292.5 107.5t-122.5 302.5zM176 422q0 -154 106.5 -269.5t225.5 -115.5q63 0 108.5 36t51.5 97l-2 426q-76 115 -275 115q-84 0 -149.5 -72t-65.5 -217z" />
<glyph unicode="e" horiz-adv-x="849" d="M61 379v2q0 70 19 133h2q39 113 156.5 189.5t240.5 76.5q102 0 205.5 -57t103.5 -156q0 -35 -101 -63.5t-264 -56t-216 -41.5q10 -164 107.5 -258.5t240.5 -94.5q86 0 176 39l27 -67q-147 -57 -262 -58q-178 0 -301 103.5t-134 308.5zM211 489q80 8 151.5 25t126.5 25 q117 14 117 57t-54 79t-144 36q-68 0 -124.5 -60.5t-72.5 -161.5z" />
<glyph unicode="f" horiz-adv-x="497" d="M10 711q0 20 60.5 28.5t60.5 32.5q0 612 240 612q35 0 75.5 -23.5t40.5 -55.5q-39 -20 -67 -66q-25 0 -45.5 25.5t-28.5 25.5q-80 0 -80 -366q0 -12 -1 -41t0 -42.5t3 -33t9.5 -26.5t17.5 -7q12 0 49 7t49 7q0 -45 13 -94q-14 2 -46 -2t-57 -8l-27 -4q-10 0 -10 -16v-396 q0 -143 25.5 -184t103.5 -41q-12 -37 -12 -47q-53 4 -127 4q-117 0 -213 -16q-4 16 -16 47q109 12 108 168v471q0 2 -17.5 -1t-44 -7.5t-42.5 -4.5q2 23 -21 54z" />
<glyph unicode="g" horiz-adv-x="921" d="M31 -219q0 63 58 127.5t136 101.5q-80 20 -82 90q76 25 146 80q0 12 -23 23q-176 94 -176 266q0 141 96.5 225t235.5 84q47 0 143.5 -30.5t139.5 -30.5q74 0 122 63q0 -14 8.5 -26.5t16.5 -18.5l8 -6q0 -104 -123 -104q-18 0 -18 -13q0 -2 10 -26q27 -55 27 -121 q0 -152 -109.5 -220.5t-267.5 -68.5q-70 -23 -70 -41q0 -25 54.5 -38t113.5 -13q197 0 278 -75t81 -181q0 -117 -125 -218.5t-334 -101.5q-147 0 -246.5 74t-99.5 199zM150 -193q0 -98 80.5 -162.5t193.5 -64.5q141 0 214 61.5t73 135.5q0 86 -63.5 151.5t-215.5 65.5 q-82 0 -131 6q-6 1 -13 1q-45 0 -77 -38q-37 -43 -49 -86t-12 -70zM225 518q0 -119 60.5 -203t160.5 -84q84 0 127 55.5t43 151.5q0 117 -58.5 199t-158.5 82q-174 0 -174 -201z" />
<glyph unicode="h" horiz-adv-x="993" d="M31 37q109 12 108 164v1007v11q0 43 -2 63.5t-18.5 42t-48.5 27.5q-2 12 -8.5 19t-8.5 13q2 2 31 7q31 6 74 23.5t73.5 32.5t34.5 15q10 -31 23 -43q-12 -45 -17 -135q-6 -207 -6 -618q18 18 50 39.5t93.5 48t112.5 26.5q147 0 229.5 -101t82.5 -259v-76v-35 q0 -165 18 -212q20 -52 111 -52l-11 -47q-70 6 -153 6q-135 0 -189 -14q-6 29 -16 47q109 12 108 164v178q0 309 -229 309q-61 0 -126.5 -40t-78.5 -99q0 -63 1 -135t1 -144q0 -143 26 -184t103 -41q-12 -37 -12 -47q-53 4 -127 4q-141 0 -213 -12q-4 16 -16 47z" />
<glyph unicode="i" horiz-adv-x="430" d="M31 33q108 12 108 168l-2 329v11q0 43 -2 63.5t-18.5 42t-48.5 27.5q-2 12 -8.5 19t-8.5 14q2 2 31 6q31 6 74 23.5t73.5 32.5t34.5 15q10 -31 23 -43q-16 -55 -17 -106v-365q8 -147 31 -186t98 -39q-12 -37 -12 -47q-53 4 -127 4q-117 0 -213 -16q-4 16 -16 47z M113 1081q0 39 25.5 62.5t60.5 23.5q31 0 51 -19.5t20 -56t-23.5 -60t-56.5 -23.5q-29 0 -53 21.5t-24 51.5z" />
<glyph unicode="j" horiz-adv-x="374" d="M-92 -430q16 6 30.5 22.5t20.5 30.5l6 15q12 0 38 -13.5t38 -13.5h3q123 0 123 280q0 29 -1 60q-1 27 -1 52t1 50l-2 477v11q0 43 -2 63.5t-18.5 42t-49.5 27.5q-2 12 -8 19t-8 14q2 2 31 6q31 6 73.5 23.5t73.5 32.5t35 15q10 -31 22 -43q-16 -55 -16 -106v-365 q3 -61 3 -118q0 -214 -36 -367q-33 -119 -114.5 -198t-155.5 -79q-33 0 -59.5 14.5t-26.5 47.5zM139 1081q0 39 25.5 62.5t60.5 23.5q31 0 51.5 -19.5t20.5 -56t-23.5 -60t-56.5 -23.5q-29 0 -53.5 21.5t-24.5 51.5z" />
<glyph unicode="k" horiz-adv-x="921" d="M31 37q109 12 108 164v1007v11q0 43 -2 63.5t-18.5 42t-48.5 27.5q-2 12 -8.5 19t-8.5 13q2 2 31 7q31 6 74 23.5t73.5 32.5t34.5 15q10 -31 23 -43q-13 -45 -17 -135q-6 -188 -6 -375q0 -70 1 -216t1 -224q31 31 107 87t116.5 101t40.5 95l232 30q0 -14 7 -23t15 -14 l9 -2q-25 -10 -81.5 -34.5t-76 -33.5t-59 -31.5t-73.5 -49.5t-77 -68q287 -416 442 -475q23 -8 41 -8q0 -4 -5 -18.5t-5 -26.5q-63 4 -141 4q-113 0 -201 -12q-2 20 -16 45q67 2 67 42q0 13 -14 35.5t-28.5 43t-39 50.5t-30.5 38q-131 166 -160 196q-55 -47 -68 -112v-58 q0 -143 26 -184t103 -41q-12 -37 -12 -47q-53 4 -127 4q-141 0 -213 -12q-4 16 -16 47z" />
<glyph unicode="l" horiz-adv-x="430" d="M31 33q108 12 108 168l-2 1003v10q0 43 -2 63.5t-18.5 42t-48.5 28.5q-2 12 -8.5 19t-8.5 13q2 2 31 6q31 6 74 23.5t73.5 33t34.5 15.5q10 -31 23 -43q-14 -45 -17 -106q-2 -93 -2 -353t2 -686q0 -143 26 -184t103 -41q-12 -37 -12 -47q-53 4 -127 4q-117 0 -213 -16 q-4 16 -16 47z" />
<glyph unicode="m" horiz-adv-x="1480" d="M31 37q109 12 108 164v329v11q0 43 -2 63.5t-18.5 42t-48.5 27.5q-2 12 -8.5 19t-8.5 14q2 2 31 6q31 6 74 22.5t73.5 29.5t34.5 13q10 -31 23 -43q-23 -55 -23 -69q18 18 50 39.5t93.5 48t112.5 26.5q86 0 132 -35.5t87 -111.5q61 61 148.5 104t161.5 43q270 0 270 -360 v-76v-35q-1 -165 17 -212q20 -52 112 -52q-10 -45 -10 -47q-70 6 -154 6q-135 0 -188 -14q-6 29 -17 47q109 12 109 164v178q0 74 -5 120t-22.5 94t-57.5 71.5t-104 23.5q-61 0 -126.5 -40t-77.5 -99q0 -47 -4 -129v-76v-35q-1 -165 17 -212q20 -52 112 -52l-11 -47 q-70 6 -153 6q-135 0 -189 -14q-6 29 -16 47q109 12 109 164v178q0 74 -5.5 120t-23 94t-57 71.5t-103.5 23.5q-61 0 -126.5 -40t-78.5 -99q0 -63 1 -135t1 -144q0 -143 26 -184t103 -41q-12 -37 -12 -47q-53 4 -127 4q-141 0 -213 -12q-4 16 -16 47z" />
<glyph unicode="n" horiz-adv-x="993" d="M31 37q109 12 108 164v329v11q0 43 -2 63.5t-18.5 42t-48.5 27.5q-2 12 -8.5 19t-8.5 14q2 2 31 6q31 6 74 22.5t73.5 29.5t34.5 13q10 -31 23 -43q-23 -55 -23 -69q18 18 50 39.5t93.5 48t112.5 26.5q147 0 229.5 -101t82.5 -259v-76v-35q0 -165 18 -212q20 -52 111 -52 l-11 -47q-70 6 -153 6q-135 0 -189 -14q-6 29 -16 47q109 12 108 164v178q0 309 -229 309q-61 0 -126.5 -40t-78.5 -99q0 -63 1 -135t1 -144q0 -143 26 -184t103 -41q-12 -37 -12 -47q-53 4 -127 4q-141 0 -213 -12q-4 16 -16 47z" />
<glyph unicode="o" horiz-adv-x="966" d="M61 379q0 188 127 294.5t299 106.5q170 0 294 -105.5t124 -296t-128 -300t-300 -109.5q-170 0 -293 107.5t-123 302.5zM207 422q0 -154 106.5 -269.5t225.5 -115.5q102 0 159.5 94t57.5 207q0 154 -106.5 263.5t-227.5 109.5q-84 0 -149.5 -72t-65.5 -217z" />
<glyph unicode="p" horiz-adv-x="962" d="M31 -444q53 6 79.5 59t28.5 203q0 88 -2 315t-2 391v11q0 43 -2 63t-18.5 42t-48.5 28q-2 12 -8.5 19t-8.5 13q2 2 31 7q31 6 73 23.5t70.5 32.5t32.5 15q10 -31 23 -43q-6 -25 -7 -26q99 67 212 67h3q170 0 293 -107.5t123 -301.5q0 -188 -127 -295t-299 -107 q-113 0 -209 49l2 -209q0 -143 26 -184t103 -41q-12 -37 -12 -47q-53 4 -127 4q-45 0 -213 -29q-4 17 -16 48zM266 575l2 -425q76 -115 275 -115q84 0 149.5 71.5t65.5 217.5q0 154 -106.5 269.5t-225.5 115.5q-63 0 -108.5 -36t-51.5 -98z" />
<glyph unicode="q" horiz-adv-x="989" d="M61 368.5q0 190.5 128 300t300 109.5q117 0 236 -49h4l4 -2q8 0 15.5 2t15.5 7t15 10.5t22.5 17.5t27.5 20q2 -12 16.5 -28.5t16.5 -20.5q-8 -12 -14 -25.5l-10 -22.5t-6.5 -24.5t-4.5 -23.5t-2 -27.5v-30v-36v-39.5l4 -713q0 -143 26 -184t103 -41q-12 -37 -12 -47 q-49 12 -102 12q-66 0 -197 -25q-4 17 -16 48q47 6 57 37.5t10 130.5v294q-96 -51 -219 -51q-170 0 -294 105.5t-124 296zM213 410q0 -154 106.5 -263.5t227.5 -109.5q90 0 149 72l-8 391q0 111 -84 161t-174 50q-102 0 -159.5 -94.5t-57.5 -206.5z" />
<glyph unicode="r" horiz-adv-x="608" d="M31 37q109 12 108 164v329v11q0 43 -2 63.5t-18.5 42t-48.5 27.5q-2 12 -8.5 19t-8.5 14q2 2 31 6q31 6 74 22.5t73.5 29.5t34.5 13q10 -31 23 -43q-23 -55 -23 -90q0 -2 8 -2q4 0 28 34t67 67.5t96 33.5q43 0 78 -26.5t35 -69.5q-12 0 -40 -14.5t-38 -36.5 q-29 0 -57.5 18.5t-49.5 18.5q-98 0 -123 -332v-66q0 -143 26 -184t103 -41q-12 -37 -12 -47q-53 4 -127 4q-141 0 -213 -12q-4 16 -16 47z" />
<glyph unicode="s" horiz-adv-x="731" d="M51 61q18 10 53.5 47t47.5 60q16 -66 88.5 -100.5t156.5 -34.5q82 0 126 41t44 100q0 78 -48 121t-117.5 58.5t-138 30.5t-117 58t-48.5 121q0 86 81 151.5t218 65.5q180 0 271 -73q-18 -10 -86 -99q-2 100 -211 101q-147 0 -148 -80q0 -61 49.5 -102.5t120 -62t140 -43 t118.5 -65.5t49 -110q0 -106 -93 -193.5t-234 -87.5q-205 0 -322 96z" />
<glyph unicode="t" horiz-adv-x="565" d="M31 711q25 0 47 10t42.5 32.5t35 40t33 54.5t25.5 52t22.5 55t17.5 44q23 -31 44 -30q0 -31 -2.5 -90.5t-2.5 -94.5q0 -18 14 -18l158 20q0 -45 20 -88q-4 0 -57 -1t-93 -8t-40 -23q0 -90 -1 -187.5t-2 -157t-3 -57.5q4 -100 31.5 -149t107.5 -49q33 0 68 40 q18 -29 39 -38q-23 -51 -89.5 -75t-121.5 -24q-166 0 -166 248v315q0 51 -3 79t-13.5 40.5t-19.5 13.5t-32.5 1t-42.5 4q-2 12 -8 24.5t-8 16.5z" />
<glyph unicode="u" horiz-adv-x="927" d="M31 707q2 2 30 6q31 6 74 23.5t74 32.5t35 15q10 -31 22 -43q-14 -46 -20 -370q0 -137 54 -223.5t177 -86.5q61 0 127 40t78 100q0 63 -1 135t-1 143q0 143 -25.5 184.5t-103.5 41.5q12 37 12 47q53 -4 127 -4q47 0 131 14q4 -16 17 -47q-6 -8 -9.5 -12.5t-6.5 -11.5 t-5 -11t-3 -13.5t-2 -13.5t-1 -18v-22.5v-29v-34.5v-330v-10q0 -43 2 -63.5t18.5 -42t49.5 -27.5q2 -12 8 -19.5t8 -13.5q-2 -2 -31 -6q-31 -6 -73.5 -22.5t-73.5 -30t-35 -13.5q-10 31 -22 43q23 55 22 70q-18 -18 -50 -39.5t-93.5 -48.5t-112.5 -27q-147 0 -229 101.5 t-82 259.5v200v11q0 43 -2 63.5t-18.5 42t-49.5 27.5q-2 12 -8 19t-8 14z" />
<glyph unicode="v" horiz-adv-x="862" d="M10 750q53 -4 127 -5q96 0 187 17q6 -10 17 -25.5t15 -21.5q-66 -10 -66 -74q0 -27 11 -63q111 -297 113 -299q2 -4 13 -31t20.5 -46.5t15.5 -19.5t39 82q4 14 28.5 72.5t53 131.5t49.5 134q5 23 5 40q0 28 -12 40q-18 20 -77 20q31 39 33 48q51 -4 125 -5q45 0 145 17 q-2 -12 -2 -26.5v-20.5q-111 -12 -176 -168l-191 -510q-18 -8 -36.5 -24.5t-28.5 -28.5l-8 -13q-20 0 -27 25l-176 481q-55 150 -86 187.5t-107 37.5q4 29 -4 48z" />
<glyph unicode="w" horiz-adv-x="1286" d="M10 750q53 -4 127 -5q96 0 187 17q6 -10 17 -25.5t15 -21.5q-66 -10 -66 -74q0 -27 11 -63q111 -297 113 -299q2 -4 13 -31t20.5 -46.5t15.5 -19.5q12 0 45 82q4 12 50 106.5t71 161.5q-20 78 -55 104t-107 26q4 29 -4 47q53 -4 127 -4q96 0 186 16q6 -10 17.5 -25.5 t15.5 -21.5q-43 -6 -61 -32q-10 -14 -9 -33q0 -15 6 -31q25 -63 103 -299q29 -96 39 -97q6 0 39 82q4 14 28.5 72.5t53 131.5t49.5 134q5 23 5 40q0 28 -12 40q-18 20 -77 20q31 39 33 48q51 -4 124 -5q45 0 146 17q-2 -12 -2 -26.5v-20.5q-111 -12 -176 -168l-191 -510 q-18 -8 -36.5 -24.5t-26.5 -28.5l-10 -13q-20 0 -27 25l-148 438l-176 -397q-18 -8 -36.5 -24.5t-28.5 -28.5l-8 -13q-20 0 -27 25l-176 481q-55 150 -86 187.5t-107 37.5q4 29 -4 48z" />
<glyph unicode="x" horiz-adv-x="786" d="M10 -16q2 4 2 20v25q0 2 21.5 13t55.5 35.5t56 57.5l197 238l-149 205q-51 80 -76 101t-68 21q0 2 1 10.5t1 14.5q0 20 -6 31q10 -2 82 -2q94 0 178 8q6 -6 17.5 -27.5t15.5 -25.5q-66 -6 -66 -41q0 -45 99 -156q37 -45 47 -53l166 188q6 12 6 23q0 32 -83 32h-5 q6 4 12 14.5t12 24t9 15.5q49 -2 120 -2q14 0 113 8q-2 -4 -2 -19v-24q0 -2 -21.5 -13.5t-55.5 -35t-54 -52.5l-180 -215l166 -223q53 -86 79.5 -109.5t71.5 -23.5q-2 -4 -2 -24q0 -23 6 -31q-12 2 -86 2q-102 0 -184 -10q-6 6 -17.5 29.5t-15.5 27.5q68 4 68 43 q0 27 -18.5 58.5t-55.5 73.5t-43 50q-2 2 -11.5 15.5t-18.5 22.5t-15 9l-180 -211q-6 -16 -6 -24q0 -35 90 -35q-10 -8 -33 -51q-63 2 -135 2q-10 0 -105 -10z" />
<glyph unicode="y" horiz-adv-x="860" d="M-12 -414q27 6 46 24.5t25 33.5l7 14q16 0 48.5 -8t51.5 -8q66 0 123 132t57 218q0 29 -1 45t-4 32.5t-14.5 51.5t-23.5 69.5t-41 118.5t-57 168q-55 150 -86 187.5t-107 37.5q4 29 -4 48q53 -4 127 -5q96 0 187 17q6 -10 17 -25.5t15 -21.5q-66 -10 -66 -74 q0 -27 11 -63q111 -297 113 -299q2 -4 13 -31t20.5 -46.5t15.5 -19.5t39 82q4 14 28.5 72.5t53 131.5t49.5 134q5 23 5 40q0 27 -12 40q-18 20 -77 20q31 39 33 48q51 -4 125 -5q45 0 145 17q-2 -12 -2 -26.5v-20.5q-111 -12 -176 -168l-195 -512q-123 -293 -184 -385 q-96 -141 -205 -142q-39 0 -69.5 19.5t-30.5 58.5z" />
<glyph unicode="z" horiz-adv-x="802" d="M31 12q0 4 12 23q47 53 146.5 156.5t163 179t120.5 170.5q2 4 20.5 31.5t27.5 48t9 34.5q0 23 -120 27q-35 1 -65 1q-89 0 -127 -9q-50 -12 -99 -53l-47 61q-6 61 -6 63q20 10 28 23l82 -10q84 -10 193 -10q102 4 205.5 10t164.5 6q4 -8 9.5 -15.5t9.5 -11.5l4 -2 q0 -2 -17.5 -25.5t-41 -52t-25.5 -32.5q-14 -23 -123 -150t-199 -243.5t-90 -145.5q0 -23 162 -23q133 2 191.5 17.5t103.5 56.5l41 -80q0 -12 4 -33.5t4 -31.5q-23 -10 -29 -23q-16 0 -53 5.5t-117.5 12.5t-203.5 13q-252 -4 -314 -18q-2 8 -8 15t-10 11z" />
<glyph unicode="{" horiz-adv-x="675" d="M63 567v29q88 6 136.5 39t48.5 123q0 55 -3 206.5t-3 206.5q0 53 6 95.5t11 74t24.5 55t31 39t44 25.5t49 16.5t62.5 8.5t67.5 3t80.5 1v-43q-111 -2 -161.5 -24.5t-76.5 -95.5t-26 -226q0 -27 2 -125t2 -129q0 -104 -29.5 -172t-111.5 -88v-6q45 -10 75 -38t43 -70 t17 -80t4 -91q0 -43 -2 -338q-2 -178 49.5 -239.5t214.5 -63.5v-43h-81q-156 0 -225.5 59.5t-69.5 225.5q0 70 4 250t4 247q0 96 -46.5 130t-140.5 38z" />
<glyph unicode="|" horiz-adv-x="464" d="M186 -545v2132h103v-2132h-103z" />
<glyph unicode="}" horiz-adv-x="675" d="M63 -338q111 2 162 24.5t77 95.5t26 226q0 27 -2 125t-2 129q0 104 29.5 172t111.5 88v6q-45 10 -75 38t-43 70t-17 80t-4 91q0 43 2 338q2 178 -49.5 239.5t-215.5 63.5v43h82q156 0 225.5 -59.5t69.5 -225.5q0 -70 -4 -250t-4 -247q0 -96 46 -130t140 -38v-29 q-88 -6 -136 -39t-48 -123q0 -55 3 -206.5t3 -206.5q0 -53 -6 -95.5t-11 -74t-24.5 -55t-31 -39t-44 -25.5t-49 -16.5t-62.5 -8.5t-67.5 -3t-81.5 -1v43z" />
<glyph unicode="~" horiz-adv-x="870" d="M61 791q27 49 99.5 90t130.5 41q68 0 185.5 -42t174.5 -42q37 0 71 11t69 34l36 22q4 -31 13 -51q-104 -109 -219 -109q-68 0 -182 40t-171 40q-31 0 -63.5 -12t-53 -24.5t-40.5 -28.5l-23 -17q-10 29 -27 48z" />
<glyph unicode="&#xa1;" horiz-adv-x="483" d="M184 -446q90 418 90 725q0 92 -10 208q20 12 27 39q39 0 59.5 -203.5t20.5 -326.5q0 -238 -9 -356q-4 -45 -50 -90.5t-97 -47.5q-15 38 -31 52zM209 696.5q0 34.5 24.5 59t59.5 24.5t59.5 -24.5t24.5 -59t-24.5 -59.5t-59.5 -25t-59.5 25t-24.5 59.5z" />
<glyph unicode="&#xa2;" horiz-adv-x="862" d="M125 678q0 178 114.5 283.5t276.5 115.5l27 295l102 -8l-27 -291q115 -20 154 -49l-78 -115q-20 41 -84 70l-57 -637q25 -6 49 -6q84 0 135 41l43 -55q-96 -53 -233 -54l-27 -307l-102 8l26 307q-139 29 -229 132.5t-90 269.5zM270 721q0 -104 52.5 -194.5t132.5 -141.5 l55 623q-6 0 -14.5 1t-10.5 1q-84 0 -149.5 -72t-65.5 -217z" />
<glyph unicode="&#xa3;" horiz-adv-x="921" d="M59 33q31 18 56.5 48t43 59.5t34 77.5t25.5 81t19.5 92.5t14.5 88t13 94t11 85.5l-196 -6q25 41 26 90l189 7q10 113 27.5 200.5t55.5 198.5t109.5 173t171.5 62q51 0 74 -30q-41 -12 -51 -103q-49 29 -92 29q-51 0 -86 -38t-50.5 -105.5t-22.5 -128t-10 -141.5t-7 -111 v-2l207 6q-19 -43 -19 -90v-2l-196 -4q-35 -375 -142 -517q18 6 64 7q70 0 189.5 -56.5t164.5 -56.5q23 0 40 25.5t17 60.5q0 10 -8 23.5t-8 19.5q47 10 68 84h2q35 0 50 -35t15 -72q0 -63 -49 -107t-97 -58.5t-81 -14.5q-61 0 -181 46t-194 46q-51 0 -76 -4 q-61 -66 -98 -90q-6 39 -23 68z" />
<glyph unicode="&#xa5;" d="M61 1311q6 12 7 45q39 0 99 -2t91 -2q131 0 211 14q0 -4 -10 -29.5t-8 -29.5q-10 -2 -38 -4.5t-40.5 -9.5t-12.5 -25q0 -37 122 -271.5t151 -234.5q-6 0 55.5 103.5t129 228.5t67.5 166q0 25 -14.5 35t-48.5 12t-42 4q8 10 8 45q35 0 106 -2t103 -2q23 0 68 2t76 2 q0 -41 4 -45q-14 -6 -35 -6q-33 -2 -55.5 -14.5t-31.5 -24t-22.5 -34t-19.5 -30.5q-63 -86 -165.5 -264t-121.5 -207h228v-102h-258q0 -94 -2 -213h260v-103h-260v-43q0 -143 25.5 -184t103.5 -41q-12 -37 -13 -47q-53 4 -127 4q-158 0 -254 -16q-4 16 -16 47 q86 6 117.5 37.5t31.5 130.5v112h-241v103h241v213h-241v102h205q-119 227 -258 471q-33 57 -74 82q-16 10 -101 27z" />
<glyph unicode="&#xa6;" horiz-adv-x="471" d="M186 -338v676l103 -2v-674h-103zM186 666v698h103v-698h-103z" />
<glyph unicode="&#xa7;" horiz-adv-x="1538" d="M123 0v1352h1290v-1352h-1290zM215 100h1106v1151h-1106v-1151z" />
<glyph unicode="&#xa8;" horiz-adv-x="745" d="M123 1005.5q0 34.5 24.5 59.5t59.5 25t59.5 -25t24.5 -59.5t-24.5 -59t-59.5 -24.5t-59.5 24.5t-24.5 59zM463 1005.5q0 34.5 24.5 59.5t59.5 25t59.5 -25t24.5 -59.5t-24.5 -59t-59.5 -24.5t-59.5 24.5t-24.5 59z" />
<glyph unicode="&#xa9;" horiz-adv-x="1091" d="M123 375q0 184 124 293.5t306 109.5q186 0 305 -101.5t119 -285.5q0 -186 -123 -304t-305 -118q-184 0 -305 109.5t-121 296.5zM233 397q0 -166 99.5 -260t230.5 -94q127 0 217 86t90 244q0 160 -98 249t-229 89q-127 0 -218.5 -83t-91.5 -231zM289 375q0 119 91 208 t208 89q43 0 88 -17.5t45 -44.5q-27 -14 -43 -49h-49q-37 51 -74 51q-59 0 -103 -56t-44 -140q0 -96 45.5 -168t117.5 -72q82 0 138 92q16 -82 20 -90q-41 -39 -77 -53t-99 -14q-109 0 -186.5 76.5t-77.5 187.5z" />
<glyph unicode="&#xaa;" horiz-adv-x="673" d="M63 911q0 80 99.5 142.5t220.5 62.5q-2 78 -7 118t-32 71.5t-80 31.5q-96 0 -123 -69q-4 0 -53 49q41 41 85 54t118 13q86 0 154.5 -58t68.5 -161q0 -10 -1 -53t-1 -96q0 -104 17.5 -134t74.5 -30q-8 -29 -8 -35q-39 4 -92 4q-70 0 -123 -20v55h-4q-35 -61 -148 -61 q-82 0 -124 35.5t-42 80.5zM184 934q0 -29 26 -49.5t60 -20.5q49 0 78 29t33 104v41q-6 10 -31 11q-35 0 -56.5 -2.5t-50 -12.5t-44 -35.5t-15.5 -64.5z" />
<glyph unicode="&#xab;" horiz-adv-x="804" d="M86 444q168 135 285 324q16 2 41 10q-8 -49 -80 -200.5t-72 -159.5q23 -41 84.5 -174t73.5 -174q-25 4 -35 4q-20 33 -38.5 59.5t-42 54t-36 42t-42 46t-38 40t-48.5 47t-48 47.5q0 10 -4 34zM387 444q164 133 287 324q20 2 39 10q-6 -49 -78 -201.5t-72 -158.5 q25 -43 85.5 -176t70.5 -172q-25 4 -35 4q-20 33 -38.5 59.5t-42 54t-36 42t-42 46t-38 40t-48.5 47t-48 47.5q0 10 -4 34z" />
<glyph unicode="&#xac;" horiz-adv-x="964" d="M68 465v90h815q2 0 -2 -29.5t-8.5 -112.5t10.5 -233q2 -4 2 -12l-162 -4h-2v301h-653z" />
<glyph unicode="&#xad;" horiz-adv-x="638" d="M124 523.5q-3 17.5 7 35.5q221 98 440 129q14 -41 -32 -106q-51 -20 -151.5 -43t-176.5 -35l-76 -10q-2 2 -5 7t-6 22.5z" />
<glyph unicode="&#xae;" horiz-adv-x="1005" d="M123 1053q0 160 117.5 280.5t267.5 120.5q156 0 272.5 -101.5t116.5 -256.5q0 -160 -122 -291t-269 -131q-156 2 -269.5 111.5t-113.5 267.5zM203 1049q0 -131 93 -208t226 -77q80 -2 162 59q-68 33 -110 81t-68 128q-8 6 -49 6v-108q0 -49 18 -62h9h10l4 -2 q-2 -10 -2 -32q-12 0 -39 2t-37 2t-37 -2t-37 -2q0 4 -2 10t-3 11t-1 7q39 10 39 68v266q0 68 -39 68q8 31 10 36q55 -6 70 -6q20 0 61 6.5t64 6.5q129 0 129 -140q0 -86 -86 -129q25 -88 129 -184q92 92 92 231q0 131 -92 209t-225 78q-123 0 -206 -94t-83 -229zM457 1092 q35 -20 75 -21q63 0 64 94q0 45 -23.5 75t-56.5 30q-59 0 -59 -70v-108z" />
<glyph unicode="&#xaf;" horiz-adv-x="628" d="M94 989v47q0 23 21 23h407q18 0 19 -23v-47q-1 -22 -19 -22h-407q-20 0 -21 22z" />
<glyph unicode="&#xb0;" horiz-adv-x="612" d="M123 1249q0 86 56.5 146.5t136 60.5t137 -60.5t57.5 -146.5t-57.5 -146.5t-137 -60.5t-136 60.5t-56.5 146.5zM207 1278q0 -59 36 -110.5t85 -51.5q53 0 78.5 30t25.5 77q0 59 -36 109t-85 50q-104 0 -104 -104z" />
<glyph unicode="&#xb1;" horiz-adv-x="851" d="M123 98v103h633v-103h-633zM123 561v103h270v299h103v-299h260v-103h-260v-309h-103v309h-270z" />
<glyph unicode="&#xb2;" horiz-adv-x="872" d="M184 1362q33 94 228 94q109 0 191.5 -59.5t82.5 -155.5q0 -53 -37 -109.5t-89 -101.5t-104.5 -89t-89 -89t-36.5 -84q0 -33 51 -33q53 0 74.5 1t55.5 5t46 14.5t23.5 31t11.5 51.5q8 0 18.5 1t14.5 1q20 0 63 -21q0 -12 -9 -39.5t-9 -60.5q0 -8 2 -19.5t2 -17.5l-39 -25 q-184 20 -281 21q-94 0 -131 -29q-12 59 -37 60q0 59 27 110t66.5 85t87 72t88.5 69.5t68.5 76.5t27.5 97q-2 92 -47 138t-119 46q-57 0 -104 -92z" />
<glyph unicode="&#xb3;" horiz-adv-x="856" d="M184 745q57 20 97 99q0 -63 39.5 -99t97 -36t90.5 62.5t33 146.5q0 66 -37 111.5t-88 45.5q-2 0 -35 -33q-25 47 -31 72q51 16 88 64.5t37 103.5t-28.5 86t-71.5 31q-66 0 -78 -76q-23 6 -43.5 14.5t-30.5 12.5t-18 4q6 53 76.5 77.5t148.5 24.5q66 0 121 -45t55 -106 q0 -49 -30.5 -98.5t-59.5 -73.5h2l-2 -3q68 -23 112 -81.5t44 -126.5q0 -100 -95.5 -189.5t-195.5 -89.5q-143 0 -197 102zM500 1137l16 -7q-2 7 -16 7z" />
<glyph unicode="&#xb4;" horiz-adv-x="512" d="M119 942q31 47 147.5 113.5t141.5 66.5h2q6 -49 26 -90q-72 -39 -293 -119q-16 23 -24 29z" />
<glyph unicode="&#xb6;" horiz-adv-x="1175" d="M123 932q0 166 133 298t303 132q127 0 196.5 -5t114.5 -5q55 0 179 8q2 -12 10 -53q-2 0 -14.5 -3.5t-17.5 -5.5t-17.5 -6t-17.5 -9t-15 -13t-15.5 -18.5t-12.5 -26t-10 -33.5t-6 -42t-3 -52v-856q0 -74 16 -117q6 -18 15.5 -31.5t17.5 -20.5t21.5 -13.5t20.5 -8.5 t20.5 -5t17.5 -3q-6 -27 -8 -49q-92 6 -181 6q-27 0 -59.5 -3t-52.5 -3v4q0 14 -8 51q33 10 43 47t10 144v845q0 193 -103 220q-29 -6 -44 -17.5t-27.5 -57.5t-12.5 -132v-856q0 -49 12.5 -115t41.5 -78q-6 -27 -6 -51v-2q-49 4 -107 4q-25 0 -54.5 -1t-65.5 -3t-56 -2 q-2 25 -10 49q25 6 39 12t35.5 24.5t31.5 58.5t10 102v292q-158 18 -261 129t-103 271zM236 938q0 -78 84.5 -185.5t168.5 -107.5q12 0 13 500q0 33 13 72.5t26 64.5l12 23h-23q-131 0 -212.5 -84t-81.5 -283z" />
<glyph unicode="&#xb7;" horiz-adv-x="354" d="M160 430q0 35 24.5 59.5t59.5 24.5t59.5 -24.5t24.5 -59.5t-24.5 -59.5t-59.5 -24.5t-59.5 24.5t-24.5 59.5z" />
<glyph unicode="&#xb8;" horiz-adv-x="483" d="M76 -293q0 25 15 45.5t38 20.5q0 -16 11.5 -28.5t23.5 -14.5l12 -4q0 -12 -13 -28.5t-13 -21.5q0 -18 45 -18t77.5 36t32.5 83q0 37 -27.5 60.5t-54 36.5t-26.5 22q0 47 20 122l72 2q0 -14 -6.5 -51t-6.5 -49q0 -8 30 -20.5t60.5 -44t30.5 -91.5q0 -74 -51 -123t-121 -49 q-53 0 -101 31t-48 84z" />
<glyph unicode="&#xb9;" horiz-adv-x="626" d="M184 1389q25 12 43 12q10 4 61.5 24.5t73.5 32.5l21 -37q-6 -23 -6 -39q0 -51 -2 -124.5t-2 -100.5v-326q0 -70 8 -89t31 -19l30 -10q0 -4 -3 -12.5t-3 -28.5q-72 4 -117 4l-116 -10l-13 36q0 2 -1 6l-1 5q59 10 60 82v499v37q0 18 -8.5 25.5t-19.5 4.5t-19 -1t-8 14 q2 0 4 -2q-12 12 -13 17z" />
<glyph unicode="&#xba;" horiz-adv-x="634" d="M59 1098q0 119 76 201.5t189 82.5q111 0 187.5 -83.5t76.5 -200.5q0 -111 -76 -194t-180 -83q-115 0 -194 78t-79 199zM176 1124q0 -82 48 -160.5t118 -78.5q57 0 90 51t33 119q0 94 -43 173t-123 79q-61 0 -92 -53.5t-31 -129.5z" />
<glyph unicode="&#xbb;" horiz-adv-x="851" d="M123 776q25 -4 35 -4q20 -33 38.5 -59.5t42 -54t36 -42t42 -46t37.5 -40t48 -47.5t49 -47q0 -10 4 -35q-164 -133 -287 -323q-20 -2 -39 -10q6 49 78 201.5t72 158.5q-25 43 -85.5 176t-70.5 172zM424 776q25 -4 35 -4q20 -33 38.5 -59.5t42 -54t36 -42t42 -46t38 -40 t48 -47.5t48.5 -47q0 -10 4 -35q-168 -135 -285 -323q-16 -2 -41 -10q8 49 80 200.5t72 159.5q-23 41 -84.5 174t-73.5 174z" />
<glyph unicode="&#xbc;" horiz-adv-x="1204" d="M184 1317q25 12 43 12q10 4 61.5 24.5t73.5 32.5l21 -36q-6 -23 -6 -39q0 -53 -2 -125t-2 -101v-325q0 -70 8 -89.5t31 -19.5l30 -10q0 -2 -3 -10t-3 -31q-72 4 -117 4l-116 -10l-13 37l-2 4v6q59 10 60 82v500v37q0 18 -8.5 25t-19.5 4t-19 -1t-8 15q2 0 4 -3 q-12 12 -13 17zM248 0l639 1384l96 -34l-639 -1385zM573 229q268 406 318 504q14 35 86 35q4 -23 18 -45q-12 -29 -12 -119l-10 -346q2 4 17.5 10t24.5 20.5t9 43.5l23 10q16 -6 28 -6v-174q-16 -2 -27.5 -14.5t-23.5 -18.5q0 18 -7 29.5t-14.5 15.5t-17.5 6t-12 4v-28 q0 -70 18.5 -91.5t63.5 -23.5q-6 -16 -6 -45q-92 6 -125 6q-12 0 -40 -3t-49.5 -6t-21.5 -5q-10 37 -16 47q31 4 45 22.5t14 61.5v69q-37 0 -127 -2t-141 -2q-6 35 -15 45zM709 256h153v285zM862 256h8h-8z" />
<glyph unicode="&#xbd;" horiz-adv-x="1374" d="M184 1317q25 12 43 12q10 4 61.5 24.5t73.5 32.5l21 -36q-6 -23 -6 -39q0 -53 -2 -125t-2 -101v-325q0 -70 8 -89.5t31 -19.5l30 -10q0 -2 -3 -10t-3 -31q-72 4 -117 4l-116 -10l-13 37l-2 4v6q59 10 60 82v500v37q0 18 -8.5 25t-19.5 4t-19 -1t-8 15q2 0 4 -3 q-12 12 -13 17zM229 0l639 1384l97 -34l-639 -1385zM739 686q33 94 228 94q109 0 191.5 -59t82.5 -156q0 -53 -37 -109.5t-89 -101.5t-104.5 -89t-89 -89t-36.5 -84q0 -33 51 -33q53 0 74.5 1t55.5 5.5t46 14.5t23.5 30.5t11.5 51.5q8 0 18.5 1t14.5 1q20 0 63 -21 q0 -12 -9 -39.5t-9 -60.5q0 -8 2 -19.5t2 -17.5l-39 -24q-184 20 -281 20q-94 0 -131 -29q-12 59 -37 60q0 59 27 110.5t66.5 85t87 71.5t88.5 69.5t68.5 77t27.5 96.5q-2 92 -47 138t-119 46q-59 0 -104 -92z" />
<glyph unicode="&#xbe;" horiz-adv-x="1351" d="M184 674q57 20 97 98q0 -63 39.5 -99t97 -36t90.5 62.5t33 146.5q0 66 -37 112t-88 46q-2 0 -35 -33q-25 47 -31 71q51 16 88 64.5t37 104t-28.5 86t-71.5 30.5q-66 0 -78 -76q-23 6 -43.5 14.5t-30.5 12.5t-18 4q6 53 76.5 77.5t148.5 24.5q66 0 121 -45t55 -106 q0 -49 -30.5 -98.5t-59.5 -73.5h2l-2 -2q68 -23 112 -82t44 -127q0 -100 -95.5 -189.5t-195.5 -89.5q-78 0 -125 31q-2 2 -14.5 8t-19.5 11.5t-16 13.5t-14.5 17.5t-7.5 21.5zM408 0l639 1384l96 -34l-639 -1385zM500 1065l16 -6q-2 6 -16 6zM737 229q268 406 318 504 q14 35 86 35q4 -23 18 -45q-12 -29 -12 -119l-10 -346q2 4 17 10t24.5 20.5t9.5 43.5l22 10q16 -6 29 -6v-174q-16 -2 -27.5 -14.5t-23.5 -18.5q0 18 -7 29.5t-14.5 15.5t-17.5 6t-12 4v-28q0 -70 18.5 -91.5t63.5 -23.5q-6 -16 -7 -45q-92 6 -125 6q-12 0 -39.5 -3t-49 -6 t-21.5 -5q-10 37 -16 47q31 4 45 22.5t14 61.5v69q-37 0 -127 -2t-141 -2q-6 35 -15 45zM872 256h154v285zM1026 256h8h-8z" />
<glyph unicode="&#xbf;" horiz-adv-x="880" d="M123 -229q0 94 70.5 209.5t173.5 181.5q53 35 70.5 90t17.5 170v80h110q10 -31 10 -137q0 -59 -30.5 -118t-62 -90.5t-91.5 -84.5q-143 -129 -143 -277q0 -98 72.5 -161.5t205.5 -63.5q45 0 89 21.5t44 62.5q0 20 -8 35l-6 16q45 14 72 64q39 0 58.5 -28t19.5 -67 q0 -74 -100.5 -121t-215.5 -47q-176 0 -266 74t-90 191zM428 694q0 35 24.5 59.5t59.5 24.5t59.5 -24.5t24.5 -59.5t-24.5 -59.5t-59.5 -24.5t-59.5 24.5t-24.5 59.5z" />
<glyph unicode="&#xc0;" horiz-adv-x="1374" d="M61 37q8 4 26.5 10t31 11t27 15.5t20.5 22.5q68 119 273.5 595t205.5 571q0 20 -31 34q2 4 2 15q0 18 -8 43q10 4 31 4q33 0 63.5 5t63.5 13l31 10q0 -2 3 -4t3 -4q-16 -33 -17 -49q0 -84 191.5 -604t236.5 -602q29 -43 113 -72q-10 -47 -10 -55q-178 6 -180 6 q-35 0 -104.5 -6t-104.5 -6q0 6 -1 23.5t-3 27.5q6 2 27.5 7t32.5 9t27.5 13.5t23.5 27t7 40t-37.5 138t-76.5 220.5l-39 102q-432 -29 -438 -49q-2 -6 -39 -107.5t-57.5 -175t-20.5 -114.5q0 -25 7 -43.5t14 -28.5t24.5 -17.5t26 -9.5t30 -5t25.5 -3q-2 -4 -6 -49 q-33 0 -94.5 3t-92.5 3q-33 0 -98.5 -6t-97.5 -6v2q0 4 -11 45zM483 631q45 12 189.5 28.5t189.5 16.5q-147 440 -168 440q-4 0 -14 -14q-14 -29 -104.5 -245t-92.5 -226zM539 1540q20 41 26 90h2q25 0 141.5 -66.5t147.5 -113.5q-8 -6 -25 -29q-221 80 -292 119z" />
<glyph unicode="&#xc1;" horiz-adv-x="1374" d="M61 37q8 4 26.5 10t31 11t27 15.5t20.5 22.5q68 119 273.5 595t205.5 571q0 20 -31 34q2 4 2 15q0 18 -8 43q10 4 31 4q33 0 63.5 5t63.5 13l31 10q0 -2 3 -4t3 -4q-16 -33 -17 -49q0 -84 191.5 -604t236.5 -602q29 -43 113 -72q-10 -47 -10 -55q-178 6 -180 6 q-35 0 -104.5 -6t-104.5 -6q0 6 -1 23.5t-3 27.5q6 2 27.5 7t32.5 9t27.5 13.5t23.5 27t7 40t-37.5 138t-76.5 220.5l-39 102q-432 -29 -438 -49q-2 -6 -39 -107.5t-57.5 -175t-20.5 -114.5q0 -25 7 -43.5t14 -28.5t24.5 -17.5t26 -9.5t30 -5t25.5 -3q-2 -4 -6 -49 q-33 0 -94.5 3t-92.5 3q-33 0 -98.5 -6t-97.5 -6v2q0 4 -11 45zM483 631q45 12 189.5 28.5t189.5 16.5q-147 440 -168 440q-4 0 -14 -14q-14 -29 -104.5 -245t-92.5 -226zM532 1452q31 47 147.5 113.5t141.5 66.5h2q6 -49 27 -90q-72 -39 -293 -119q-16 23 -25 29z" />
<glyph unicode="&#xc2;" horiz-adv-x="1374" d="M61 37q8 4 26.5 10t31 11t27 15.5t20.5 22.5q68 119 273.5 595t205.5 571q0 20 -31 34q2 4 2 15q0 18 -8 43q10 4 31 4q33 0 63.5 5t63.5 13l31 10q0 -2 3 -4t3 -4q-16 -33 -17 -49q0 -84 191.5 -604t236.5 -602q29 -43 113 -72q-10 -47 -10 -55q-178 6 -180 6 q-35 0 -104.5 -6t-104.5 -6q0 6 -1 23.5t-3 27.5q6 2 27.5 7t32.5 9t27.5 13.5t23.5 27t7 40t-37.5 138t-76.5 220.5l-39 102q-432 -29 -438 -49q-2 -6 -39 -107.5t-57.5 -175t-20.5 -114.5q0 -25 7 -43.5t14 -28.5t24.5 -17.5t26 -9.5t30 -5t25.5 -3q-2 -4 -6 -49 q-33 0 -94.5 3t-92.5 3q-33 0 -98.5 -6t-97.5 -6v2q0 4 -11 45zM473 1448l12 18q178 152 217 152q14 0 68.5 -38t101.5 -77l48 -37l12 -18l-27 -23q-152 86 -203 86q-25 0 -77 -21.5t-90 -43.5l-39 -21zM483 631q45 12 189.5 28.5t189.5 16.5q-147 440 -168 440 q-4 0 -14 -14q-14 -29 -104.5 -245t-92.5 -226z" />
<glyph unicode="&#xc3;" horiz-adv-x="1374" d="M61 37q8 4 26.5 10t31 11t27 15.5t20.5 22.5q68 119 273.5 595t205.5 571q0 20 -31 34q2 4 2 15q0 18 -8 43q10 4 31 4q33 0 63.5 5t63.5 13l31 10q0 -2 3 -4t3 -4q-16 -33 -17 -49q0 -84 191.5 -604t236.5 -602q29 -43 113 -72q-10 -47 -10 -55q-178 6 -180 6 q-35 0 -104.5 -6t-104.5 -6q0 6 -1 23.5t-3 27.5q6 2 27.5 7t32.5 9t27.5 13.5t23.5 27t7 40t-37.5 138t-76.5 220.5l-39 102q-432 -29 -438 -49q-2 -6 -39 -107.5t-57.5 -175t-20.5 -114.5q0 -25 7 -43.5t14 -28.5t24.5 -17.5t26 -9.5t30 -5t25.5 -3q-2 -4 -6 -49 q-33 0 -94.5 3t-92.5 3q-33 0 -98.5 -6t-97.5 -6v2q0 4 -11 45zM469 1456q10 41 56 85t81 44q43 0 108.5 -38t94.5 -38q25 0 42 10.5t35.5 29l20.5 20.5q4 -14 21 -27q-12 -37 -58.5 -77t-76.5 -40q-45 0 -107.5 36t-93.5 36q-25 0 -46.5 -15.5t-37.5 -35.5l-19 -23 q-4 16 -20 33zM483 631q45 12 189.5 28.5t189.5 16.5q-147 440 -168 440q-4 0 -14 -14q-14 -29 -104.5 -245t-92.5 -226z" />
<glyph unicode="&#xc4;" horiz-adv-x="1374" d="M61 37q8 4 26.5 10t31 11t27 15.5t20.5 22.5q68 119 273.5 595t205.5 571q0 20 -31 34q2 4 2 15q0 18 -8 43q10 4 31 4q33 0 63.5 5t63.5 13l31 10q0 -2 3 -4t3 -4q-16 -33 -17 -49q0 -84 191.5 -604t236.5 -602q29 -43 113 -72q-10 -47 -10 -55q-178 6 -180 6 q-35 0 -104.5 -6t-104.5 -6q0 6 -1 23.5t-3 27.5q6 2 27.5 7t32.5 9t27.5 13.5t23.5 27t7 40t-37.5 138t-76.5 220.5l-39 102q-432 -29 -438 -49q-2 -6 -39 -107.5t-57.5 -175t-20.5 -114.5q0 -25 7 -43.5t14 -28.5t24.5 -17.5t26 -9.5t30 -5t25.5 -3q-2 -4 -6 -49 q-33 0 -94.5 3t-92.5 3q-33 0 -98.5 -6t-97.5 -6v2q0 4 -11 45zM438 1511.5q0 34.5 24.5 59t59.5 24.5t59.5 -24.5t24.5 -59t-24.5 -59.5t-59.5 -25t-59.5 25t-24.5 59.5zM483 631q45 12 189.5 28.5t189.5 16.5q-147 440 -168 440q-4 0 -14 -14q-14 -29 -104.5 -245 t-92.5 -226zM778 1511.5q0 34.5 24.5 59t59.5 24.5t59.5 -24.5t24.5 -59t-24.5 -59.5t-59.5 -25t-59.5 25t-24.5 59.5z" />
<glyph unicode="&#xc5;" horiz-adv-x="1374" d="M61 37q8 4 26.5 10t31 11t27 15.5t20.5 22.5q68 119 273.5 595t205.5 571q0 20 -31 34q2 4 2 15q0 18 -8 43q10 4 31 4q33 0 63.5 5t63.5 13l31 10q0 -2 3 -4t3 -4q-16 -33 -17 -49q0 -84 191.5 -604t236.5 -602q29 -43 113 -72q-10 -47 -10 -55q-178 6 -180 6 q-35 0 -104.5 -6t-104.5 -6q0 6 -1 23.5t-3 27.5q6 2 27.5 7t32.5 9t27.5 13.5t23.5 27t7 40t-37.5 138t-76.5 220.5l-39 102q-432 -29 -438 -49q-2 -6 -39 -107.5t-57.5 -175t-20.5 -114.5q0 -25 7 -43.5t14 -28.5t24.5 -17.5t26 -9.5t30 -5t25.5 -3q-2 -4 -6 -49 q-33 0 -94.5 3t-92.5 3q-33 0 -98.5 -6t-97.5 -6v2q0 4 -11 45zM483 631q45 12 189.5 28.5t189.5 16.5q-147 440 -168 440q-4 0 -14 -14q-14 -29 -104.5 -245t-92.5 -226zM535 1593q0 68 46 117t109.5 49t108.5 -49t45 -116.5t-45 -118t-108.5 -50.5t-109.5 49.5t-46 118.5z M598 1593q0 -41 26.5 -70.5t65.5 -29.5q37 0 64.5 29.5t27.5 70.5q0 39 -27.5 69t-64.5 30t-64.5 -30t-27.5 -69z" />
<glyph unicode="&#xc6;" horiz-adv-x="2027" d="M59 -8q2 2 2 24l-2 21q8 4 29 10t33 11t27.5 15.5t25.5 22.5q88 115 390 582t335 575q-33 53 -119 54q8 41 8 47q53 -4 127 -4q580 0 793 20q16 -45 28.5 -94t16.5 -76l2 -26l-45 -9q-51 115 -295 115q-178 0 -252 -2q-68 -4 -88 -16.5t-18 -59.5q0 -27 8 -86t25.5 -178 t31.5 -233q6 -12 29 -13q289 0 356 56q23 20 39 118l56 -6q4 -27 7 -93.5t9 -102.5q4 -61 31 -164q-18 -4 -47 -13q-6 10 -18.5 41t-27 54.5t-32.5 35.5q-27 16 -89.5 20.5t-118.5 -0.5t-108.5 -11t-54.5 -6q-12 0 -16 -5q63 -406 90 -489q39 -51 217 -51q14 0 63 -1t74 0 t71 3t74.5 8t60.5 18.5t54 28.5q39 29 57 76l60 -16q2 -37 -13.5 -109t-11.5 -107q-152 25 -714 25h-50h-45q-35 0 -106.5 -6t-104.5 -6q0 6 3.5 23.5t3.5 27.5q6 2 28.5 6t34.5 9t30.5 14.5t30 27t15.5 39.5q6 23 -8.5 138.5t-30.5 220.5l-16 102q-438 -29 -449 -49 q-8 -14 -47 -82t-65.5 -116t-54.5 -107.5t-34 -91.5q0 -23 -4 -38.5t6.5 -27.5t14.5 -18.5t19.5 -10.5t22.5 -6t23.5 -4t22.5 -2q-4 -4 -17 -49q-33 0 -94 3t-92 3q-33 0 -98.5 -6t-98.5 -6v2zM606 631q47 12 194.5 28.5t192.5 16.5q-53 440 -73 440q-6 0 -17 -14 q-23 -29 -158 -245t-139 -226z" />
<glyph unicode="&#xc7;" horiz-adv-x="1382" d="M123 662q0 299 203.5 509.5t482.5 210.5q76 0 186.5 -15t153.5 -15q14 0 24.5 10t20.5 10q27 0 27 -84v-37q0 -12 4 -30.5t12 -49t12 -59.5q-35 -6 -57 -31q-41 233 -399 234q-233 0 -382 -191.5t-149 -443.5q0 -258 159 -450.5t413 -192.5q244 0 370 119q12 -43 56 -70 q-55 -37 -87 -55.5t-124.5 -42t-208.5 -23.5q-305 0 -511 188.5t-206 508.5zM684 -293q0 25 15.5 45.5t37.5 20.5q0 -16 12.5 -28.5t24.5 -14.5l10 -4q0 -12 -13 -28.5t-13 -21.5q0 -18 45 -18t77.5 36t32.5 83q0 37 -26.5 60.5t-54 36.5t-27.5 22q0 47 20 122l72 2 q0 -14 -6 -51t-6 -49q0 -8 30.5 -20.5t60.5 -44t30 -91.5q0 -74 -51.5 -123t-120.5 -49q-53 0 -101.5 31t-48.5 84z" />
<glyph unicode="&#xc8;" horiz-adv-x="1193" d="M96 33q86 6 117 37.5t33 130.5q4 387 4 510l-4 391q-2 129 -27.5 167t-101.5 38q12 37 12 47q53 -4 127 -4q580 0 797 20q10 -45 14 -94t4 -76v-26l-47 -9q-33 115 -279 115q-178 0 -251 -2q-78 -4 -96.5 -23.5t-20.5 -103.5q-2 -221 -2 -381q2 -12 26 -12q287 0 365 55 q23 18 55 119l56 -6q0 -29 -7.5 -95.5t-7.5 -101.5q0 -74 10 -164q-31 -6 -51 -12q-4 10 -12 41t-18.5 54.5t-26.5 35.5q-25 16 -86.5 20.5t-118.5 -1t-110.5 -11.5t-55.5 -6q-16 0 -18 -6l2 -410q0 -115 16 -141q27 -49 176 -53h33q4 0 73.5 -1t95.5 1t80 6t91 17.5 t66 33.5q43 31 67 76l58 -16q-2 -37 -28 -109t-28 -107q-147 25 -710 25q-158 0 -254 -16q-4 16 -17 47zM467 1544q20 41 27 90h2q25 0 141.5 -66.5t146.5 -113.5q-8 -6 -24 -29q-221 80 -293 119z" />
<glyph unicode="&#xc9;" horiz-adv-x="1193" d="M96 33q86 6 117 37.5t33 130.5q4 387 4 510l-4 391q-2 129 -27.5 167t-101.5 38q12 37 12 47q53 -4 127 -4q580 0 797 20q10 -45 14 -94t4 -76v-26l-47 -9q-33 115 -279 115q-178 0 -251 -2q-78 -4 -96.5 -23.5t-20.5 -103.5q-2 -221 -2 -381q2 -12 26 -12q287 0 365 55 q23 18 55 119l56 -6q0 -29 -7.5 -95.5t-7.5 -101.5q0 -74 10 -164q-31 -6 -51 -12q-4 10 -12 41t-18.5 54.5t-26.5 35.5q-25 16 -86.5 20.5t-118.5 -1t-110.5 -11.5t-55.5 -6q-16 0 -18 -6l2 -410q0 -115 16 -141q27 -49 176 -53h33q4 0 73.5 -1t95.5 1t80 6t91 17.5 t66 33.5q43 31 67 76l58 -16q-2 -37 -28 -109t-28 -107q-147 25 -710 25q-158 0 -254 -16q-4 16 -17 47zM428 1446q31 47 147.5 113.5t141.5 66.5h2q6 -49 26 -90q-72 -39 -292 -119q-16 23 -25 29z" />
<glyph unicode="&#xca;" horiz-adv-x="1193" d="M96 33q86 6 117 37.5t33 130.5q4 387 4 510l-4 391q-2 129 -27.5 167t-101.5 38q12 37 12 47q53 -4 127 -4q580 0 797 20q10 -45 14 -94t4 -76v-26l-47 -9q-33 115 -279 115q-178 0 -251 -2q-78 -4 -96.5 -23.5t-20.5 -103.5q-2 -221 -2 -381q2 -12 26 -12q287 0 365 55 q23 18 55 119l56 -6q0 -29 -7.5 -95.5t-7.5 -101.5q0 -74 10 -164q-31 -6 -51 -12q-4 10 -12 41t-18.5 54.5t-26.5 35.5q-25 16 -86.5 20.5t-118.5 -1t-110.5 -11.5t-55.5 -6q-16 0 -18 -6l2 -410q0 -115 16 -141q27 -49 176 -53h33q4 0 73.5 -1t95.5 1t80 6t91 17.5 t66 33.5q43 31 67 76l58 -16q-2 -37 -28 -109t-28 -107q-147 25 -710 25q-158 0 -254 -16q-4 16 -17 47zM373 1446l12 18q178 152 217 152q14 0 68.5 -38t101.5 -75l47 -39l12 -18l-26 -23q-152 86 -203 86q-25 0 -77 -21.5t-91 -41.5l-39 -23z" />
<glyph unicode="&#xcb;" horiz-adv-x="1193" d="M96 33q86 6 117 37.5t33 130.5q4 387 4 510l-4 391q-2 129 -27.5 167t-101.5 38q12 37 12 47q53 -4 127 -4q580 0 797 20q10 -45 14 -94t4 -76v-26l-47 -9q-33 115 -279 115q-178 0 -251 -2q-78 -4 -96.5 -23.5t-20.5 -103.5q-2 -221 -2 -381q2 -12 26 -12q287 0 365 55 q23 18 55 119l56 -6q0 -29 -7.5 -95.5t-7.5 -101.5q0 -74 10 -164q-31 -6 -51 -12q-4 10 -12 41t-18.5 54.5t-26.5 35.5q-25 16 -86.5 20.5t-118.5 -1t-110.5 -11.5t-55.5 -6q-16 0 -18 -6l2 -410q0 -115 16 -141q27 -49 176 -53h33q4 0 73.5 -1t95.5 1t80 6t91 17.5 t66 33.5q43 31 67 76l58 -16q-2 -37 -28 -109t-28 -107q-147 25 -710 25q-158 0 -254 -16q-4 16 -17 47zM352 1509.5q0 34.5 24.5 59t59.5 24.5t59.5 -24.5t24.5 -59t-24.5 -59.5t-59.5 -25t-59.5 25t-24.5 59.5zM692 1509.5q0 34.5 24.5 59t59.5 24.5t59.5 -24.5t24.5 -59 t-24.5 -59.5t-59.5 -25t-59.5 25t-24.5 59.5z" />
<glyph unicode="&#xcc;" horiz-adv-x="620" d="M96 33q86 6 117 37.5t33 130.5q4 397 4 520l-4 381q-2 129 -27.5 167t-101.5 38q12 37 12 47q53 -4 127 -4q158 0 254 16q4 -16 16 -47q-86 -6 -117.5 -38t-31.5 -130q-2 -270 -2 -430l2 -451q0 -143 25.5 -184t103.5 -41q-12 -37 -12 -47q-53 4 -127 4q-158 0 -254 -16 q-4 16 -17 47zM158 1542q20 41 26 90h2q25 0 141.5 -66.5t147.5 -113.5q-8 -6 -24 -29q-221 80 -293 119z" />
<glyph unicode="&#xcd;" horiz-adv-x="620" d="M96 33q86 6 117 37.5t33 130.5q4 397 4 520l-4 381q-2 129 -27.5 167t-101.5 38q12 37 12 47q53 -4 127 -4q158 0 254 16q4 -16 16 -47q-86 -6 -117.5 -38t-31.5 -130q-2 -270 -2 -430l2 -451q0 -143 25.5 -184t103.5 -41q-12 -37 -12 -47q-53 4 -127 4q-158 0 -254 -16 q-4 16 -17 47zM154 1452q31 47 147 113.5t141 66.5h2q6 -49 27 -90q-72 -39 -293 -119q-16 23 -24 29z" />
<glyph unicode="&#xce;" horiz-adv-x="620" d="M80 1448l12 18q178 152 217 152q14 0 68.5 -38t101.5 -77l47 -37l13 -18l-27 -23q-152 86 -203 86q-25 0 -77 -21.5t-91 -43.5l-39 -21zM96 33q86 6 117 37.5t33 130.5q4 397 4 520l-4 381q-2 129 -27.5 167t-101.5 38q12 37 12 47q53 -4 127 -4q158 0 254 16 q4 -16 16 -47q-86 -6 -117.5 -38t-31.5 -130q-2 -270 -2 -430l2 -451q0 -143 25.5 -184t103.5 -41q-12 -37 -12 -47q-53 4 -127 4q-158 0 -254 -16q-4 16 -17 47z" />
<glyph unicode="&#xcf;" horiz-adv-x="620" d="M61 1507.5q0 34.5 25 59t59.5 24.5t59 -24.5t24.5 -59t-24.5 -59.5t-59 -25t-59.5 25t-25 59.5zM96 33q86 6 117 37.5t33 130.5q4 397 4 520l-4 381q-2 129 -27.5 167t-101.5 38q12 37 12 47q53 -4 127 -4q158 0 254 16q4 -16 16 -47q-86 -6 -117.5 -38t-31.5 -130 q-2 -270 -2 -430l2 -451q0 -143 25.5 -184t103.5 -41q-12 -37 -12 -47q-53 4 -127 4q-158 0 -254 -16q-4 16 -17 47zM401 1507.5q0 34.5 25 59t59.5 24.5t59 -24.5t24.5 -59t-24.5 -59.5t-59 -25t-59.5 25t-25 59.5z" />
<glyph unicode="&#xd0;" horiz-adv-x="1470" d="M90 653v99h160q0 410 -14 477q-14 66 -64 74q-18 4 -55 4q12 37 12 47q53 -4 127 -4t225.5 16t231.5 16q315 0 483 -186t168 -455q0 -143 -49 -279t-139.5 -247t-231.5 -178.5t-311 -67.5q-39 0 -124 16.5t-142 16.5q-158 0 -254 -16q-4 16 -17 47q96 6 123 45 q33 47 33 268q0 43 -2 148v159h-160zM375 259.5q0 -19.5 1 -40t2 -33t3 -23.5t4 -26q27 -47 107 -71.5t141 -24.5q186 0 325.5 100.5t205 250t65.5 319.5q0 160 -58.5 292t-194.5 220t-329 88q-223 0 -266 -88q-6 -74 -6 -471h377v-99h-377v-142.5v-111.5v-79.5v-60z" />
<glyph unicode="&#xd1;" horiz-adv-x="1589" d="M102 33q86 6 118 37.5t32 130.5q-2 373 -14 991q0 33 -19.5 53.5t-64.5 41t-50 22.5q6 35 9 49q12 0 41.5 -3t44.5 -3q18 0 62 3t61 3q14 0 30 -29q53 -82 433 -526.5t472 -528.5q31 274 15 826v2q-4 141 -25.5 173t-101.5 32q12 37 12 47q53 -4 127 -4q98 0 195 16 q4 -16 16 -47q-86 -6 -117.5 -38t-31.5 -130q-4 -623 -5 -688q0 -233 9 -397q0 -8 4 -31t4 -35q0 -10 -17.5 -20.5t-29.5 -10.5q-20 0 -58 66q-41 74 -454.5 564.5t-462.5 490.5q-20 0 -21 -132q0 -406 7 -688q2 -145 25.5 -185t101.5 -40q-12 -37 -13 -47q-53 4 -127 4 q-94 0 -190 -16q-4 16 -17 47zM565 1384q10 41 56.5 85t80.5 44q43 0 109 -37.5t94 -37.5q25 0 42.5 10t35.5 28.5t21 20.5q4 -14 20 -27q-12 -37 -58 -76.5t-77 -39.5q-45 0 -107.5 35.5t-93.5 35.5q-25 0 -46 -15t-40 -38l-16 -20q-4 16 -21 32z" />
<glyph unicode="&#xd2;" horiz-adv-x="1527" d="M123 676q0 297 184.5 502.5t448.5 205.5q266 0 457.5 -203.5t191.5 -500.5q0 -317 -186.5 -514t-470.5 -197q-260 0 -442.5 207t-182.5 500zM256 719q0 -176 67.5 -329.5t196.5 -250t291 -96.5q215 0 329.5 173t114.5 417q0 178 -61 330.5t-183 250t-282 97.5 q-219 0 -346 -176.5t-127 -415.5zM602 1542q20 41 27 90h2q25 0 141.5 -66.5t147.5 -113.5q-8 -6 -25 -29q-221 80 -293 119z" />
<glyph unicode="&#xd3;" horiz-adv-x="1527" d="M123 676q0 297 184.5 502.5t448.5 205.5q266 0 457.5 -203.5t191.5 -500.5q0 -317 -186.5 -514t-470.5 -197q-260 0 -442.5 207t-182.5 500zM256 719q0 -176 67.5 -329.5t196.5 -250t291 -96.5q215 0 329.5 173t114.5 417q0 178 -61 330.5t-183 250t-282 97.5 q-219 0 -346 -176.5t-127 -415.5zM606 1452q31 47 147.5 113.5t141.5 66.5h2q6 -49 27 -90q-72 -39 -293 -119q-16 23 -25 29z" />
<glyph unicode="&#xd4;" horiz-adv-x="1527" d="M123 676q0 297 184.5 502.5t448.5 205.5q266 0 457.5 -203.5t191.5 -500.5q0 -317 -186.5 -514t-470.5 -197q-260 0 -442.5 207t-182.5 500zM256 719q0 -176 67.5 -329.5t196.5 -250t291 -96.5q215 0 329.5 173t114.5 417q0 178 -61 330.5t-183 250t-282 97.5 q-219 0 -346 -176.5t-127 -415.5zM535 1448l12 18q178 152 217 152q14 0 68.5 -38t101.5 -77l47 -37l12 -18l-26 -23q-152 86 -203 86q-25 0 -77 -21.5t-91 -43.5l-39 -21z" />
<glyph unicode="&#xd5;" horiz-adv-x="1527" d="M123 676q0 297 184.5 502.5t448.5 205.5q266 0 457.5 -203.5t191.5 -500.5q0 -317 -186.5 -514t-470.5 -197q-260 0 -442.5 207t-182.5 500zM256 719q0 -176 67.5 -329.5t196.5 -250t291 -96.5q215 0 329.5 173t114.5 417q0 178 -61 330.5t-183 250t-282 97.5 q-219 0 -346 -176.5t-127 -415.5zM532 1456q10 41 56.5 85t81.5 44q43 0 108.5 -38t93.5 -38q25 0 42.5 10.5t36 29l20.5 20.5q4 -14 20 -27q-12 -37 -58 -77t-77 -40q-45 0 -107.5 36t-93.5 36q-25 0 -46 -15.5t-40 -35.5l-16 -23q-4 16 -21 33z" />
<glyph unicode="&#xd6;" horiz-adv-x="1527" d="M123 676q0 297 184.5 502.5t448.5 205.5q266 0 457.5 -203.5t191.5 -500.5q0 -317 -186.5 -514t-470.5 -197q-260 0 -442.5 207t-182.5 500zM256 719q0 -176 67.5 -329.5t196.5 -250t291 -96.5q215 0 329.5 173t114.5 417q0 178 -61 330.5t-183 250t-282 97.5 q-219 0 -346 -176.5t-127 -415.5zM512 1509.5q0 34.5 24.5 59t59.5 24.5t59.5 -24.5t24.5 -59t-24.5 -59.5t-59.5 -25t-59.5 25t-24.5 59.5zM852 1509.5q0 34.5 24.5 59t59.5 24.5t59.5 -24.5t24.5 -59t-24.5 -59.5t-59.5 -25t-59.5 25t-24.5 59.5z" />
<glyph unicode="&#xd7;" horiz-adv-x="745" d="M123 598l72 74l190 -193l193 195l73 -74l-192 -192l182 -185l-72 -71l-184 184l-184 -184l-72 71l184 185z" />
<glyph unicode="&#xd8;" horiz-adv-x="1527" d="M123 676q0 297 184.5 502.5t448.5 205.5q131 0 252 -57l26 57l96 -34l-32 -72q141 -94 224 -252t83 -346q0 -317 -186.5 -514t-470.5 -197q-117 0 -232 49l-24 -53l-97 35l31 68q-139 94 -221 254.5t-82 353.5zM256 719q0 -162 58.5 -305.5t160.5 -239.5l494 1069 q-107 68 -240 68q-219 0 -346 -176.5t-127 -415.5zM559 113q115 -70 252 -70q215 0 329.5 173t114.5 417q0 162 -53 306t-151 239z" />
<glyph unicode="&#xd9;" horiz-adv-x="1417" d="M117 1307q12 37 12 47q53 -4 127 -4q158 0 254 16q4 -16 16 -47q-86 -6 -117.5 -38t-31.5 -130v-86l2 -477q2 -221 105.5 -365.5t308.5 -144.5q203 0 294 136t91 361q0 53 -1 119t-2 179.5t-1 207.5v29q0 133 -24 163t-151 30q12 37 13 47l366 2q2 -10 -5 -25.5t-5 -21.5 q-66 -6 -87 -32t-21 -122q4 -500 4 -578q0 -264 -123 -434t-367 -170q-152 0 -258 53.5t-162.5 152.5t-81 219t-24.5 276l-2 307v104q0 143 -25.5 184.5t-103.5 41.5zM608 1501q20 41 27 90h2q25 0 141.5 -66.5t147.5 -113.5q-8 -6 -25 -29q-221 80 -293 119z" />
<glyph unicode="&#xda;" horiz-adv-x="1417" d="M117 1307q12 37 12 47q53 -4 127 -4q158 0 254 16q4 -16 16 -47q-86 -6 -117.5 -38t-31.5 -130v-86l2 -477q2 -221 105.5 -365.5t308.5 -144.5q203 0 294 136t91 361q0 53 -1 119t-2 179.5t-1 207.5v29q0 133 -24 163t-151 30q12 37 13 47l366 2q2 -10 -5 -25.5t-5 -21.5 q-66 -6 -87 -32t-21 -122q4 -500 4 -578q0 -264 -123 -434t-367 -170q-152 0 -258 53.5t-162.5 152.5t-81 219t-24.5 276l-2 307v104q0 143 -25.5 184.5t-103.5 41.5zM594 1413q31 47 147.5 113.5t141.5 66.5h2q6 -49 26 -90q-72 -39 -293 -119q-16 23 -24 29z" />
<glyph unicode="&#xdb;" horiz-adv-x="1417" d="M117 1307q12 37 12 47q53 -4 127 -4q158 0 254 16q4 -16 16 -47q-86 -6 -117.5 -38t-31.5 -130v-86l2 -477q2 -221 105.5 -365.5t308.5 -144.5q203 0 294 136t91 361q0 53 -1 119t-2 179.5t-1 207.5v29q0 133 -24 163t-151 30q12 37 13 47l366 2q2 -10 -5 -25.5t-5 -21.5 q-66 -6 -87 -32t-21 -122q4 -500 4 -578q0 -264 -123 -434t-367 -170q-152 0 -258 53.5t-162.5 152.5t-81 219t-24.5 276l-2 307v104q0 143 -25.5 184.5t-103.5 41.5zM532 1446l13 18q178 152 217 152q14 0 68.5 -38t101.5 -75l47 -39l12 -18l-26 -23q-152 86 -203 86 q-25 0 -77 -21.5t-91 -41.5l-39 -23z" />
<glyph unicode="&#xdc;" horiz-adv-x="1417" d="M117 1307q12 37 12 47q53 -4 127 -4q158 0 254 16q4 -16 16 -47q-86 -6 -117.5 -38t-31.5 -130v-86l2 -477q2 -221 105.5 -365.5t308.5 -144.5q203 0 294 136t91 361q0 53 -1 119t-2 179.5t-1 207.5v29q0 133 -24 163t-151 30q12 37 13 47l366 2q2 -10 -5 -25.5t-5 -21.5 q-66 -6 -87 -32t-21 -122q4 -500 4 -578q0 -264 -123 -434t-367 -170q-152 0 -258 53.5t-162.5 152.5t-81 219t-24.5 276l-2 307v104q0 143 -25.5 184.5t-103.5 41.5zM524 1507.5q0 34.5 24.5 59t59.5 24.5t59.5 -24.5t24.5 -59t-24.5 -59.5t-59.5 -25t-59.5 25t-24.5 59.5z M864 1507.5q0 34.5 24.5 59t59.5 24.5t59.5 -24.5t24.5 -59t-24.5 -59.5t-59.5 -25t-59.5 25t-24.5 59.5z" />
<glyph unicode="&#xdd;" d="M61 1311q6 12 7 45q39 0 99 -2t91 -2q131 0 211 14q0 -4 -10 -29.5t-8 -29.5q-10 -2 -38 -4.5t-40.5 -9.5t-12.5 -25q0 -37 122 -271.5t151 -234.5q-6 0 55.5 103.5t129 228.5t67.5 166q0 25 -14.5 35t-48.5 12t-42 4q8 10 8 45q35 0 106 -2t103 -2q23 0 68 2t76 2 q0 -41 4 -45q-14 -6 -35 -6q-33 -2 -55.5 -14.5t-31.5 -24t-22.5 -34t-19.5 -30.5q-68 -90 -171 -273.5t-146 -246.5q0 -166 -2 -412q0 -143 25.5 -184t103.5 -41q-12 -37 -13 -47q-53 4 -127 4q-158 0 -254 -16q-4 16 -16 47q86 6 117.5 37.5t31.5 130.5v456 q-125 250 -294 545q-33 57 -74 82q-16 10 -101 27zM434 1546q31 47 147.5 113.5t141.5 66.5h2q6 -49 27 -90q-72 -39 -293 -118q-16 23 -25 28z" />
<glyph unicode="&#xde;" horiz-adv-x="1150" d="M96 33q86 6 117 37.5t33 130.5q4 397 4 520l-4 381q-2 129 -27.5 167t-101.5 38q12 37 12 47q53 -4 127 -4q158 0 254 16q4 -16 16 -47q-53 -4 -83.5 -16.5t-45 -44t-17.5 -59.5t-5 -91q27 -18 31 -18q18 0 79.5 -1.5t106.5 -1.5q164 0 301 -105t137 -275 q0 -213 -138 -315.5t-347 -102.5q-82 0 -168 16q0 -168 24.5 -214t104.5 -46q-12 -37 -12 -47q-53 4 -127 4q-158 0 -254 -16q-4 16 -17 47zM375 385q96 -23 176 -23q152 0 242 79t90 247q0 129 -104.5 228.5t-225.5 99.5q-47 0 -69.5 -2t-54.5 -19.5t-46 -54.5 q-8 -31 -8 -401v-154z" />
<glyph unicode="&#xdf;" horiz-adv-x="1202" d="M133 711q0 20 57.5 28.5t57.5 32.5q0 94 22.5 203.5t66.5 221.5t128 185.5t192 73.5q180 0 280.5 -97t100.5 -237q0 -59 -34.5 -108t-84 -83t-98.5 -65.5t-84 -67.5t-35 -77q0 -59 39 -98t94.5 -62.5t110.5 -53.5t94 -91.5t39 -157.5q0 -131 -85 -209t-203 -80l-3 -2 q-63 0 -143 28t-80 66q39 23 64 70h14q14 -12 33.5 -29.5t30 -25.5t26 -18.5t32.5 -16.5t40 -8l2 2q152 0 151 192q0 66 -39.5 109t-98 69.5t-116 55t-97.5 88t-40 147.5q0 55 51.5 109.5t113 90.5t112.5 88t51 108q0 117 -85 188.5t-181 71.5q-55 0 -99.5 -29t-72 -72 t-46 -105.5t-26.5 -119.5t-12 -123.5t-3 -110.5t3 -87l2 -41q0 -53 1 -162t1 -232q0 -145 21.5 -185t99.5 -40q-12 -37 -13 -47h-27.5t-65.5 1t-73 1l-165 -12q-4 16 -17 47q55 6 82 40t27 115v480q-6 0 -40 -6.5t-52 -6.5q0 14 -5.5 27.5t-9.5 20.5z" />
<glyph unicode="&#xe0;" horiz-adv-x="935" d="M123 188q0 113 147.5 199t354.5 86q-4 242 -195 242q-164 0 -201 -94q-4 -4 -73 67q92 92 311 92q115 0 202 -79.5t87 -223.5q0 -14 -1 -73.5t-1 -133.5q0 -143 25.5 -184t103.5 -41q-12 -37 -13 -47q-53 4 -127 4q-16 0 -27 -1t-18.5 -1t-17.5 -3t-14 -4t-20.5 -8.5 t-24.5 -9.5v76h-7q-23 -41 -92 -63.5t-141 -22.5q-121 0 -189.5 60.5t-68.5 162.5zM236 993q20 41 26 90h2q25 0 141.5 -66.5t147.5 -113.5q-8 -6 -25 -29q-221 80 -292 119zM260 193q0 -78 46 -118t104 -40q201 0 213 272v86q-8 12 -45 13q-131 0 -224.5 -52t-93.5 -161z " />
<glyph unicode="&#xe1;" horiz-adv-x="935" d="M123 188q0 113 147.5 199t354.5 86q-4 242 -195 242q-164 0 -201 -94q-4 -4 -73 67q92 92 311 92q115 0 202 -79.5t87 -223.5q0 -14 -1 -73.5t-1 -133.5q0 -143 25.5 -184t103.5 -41q-12 -37 -13 -47q-53 4 -127 4q-16 0 -27 -1t-18.5 -1t-17.5 -3t-14 -4t-20.5 -8.5 t-24.5 -9.5v76h-7q-23 -41 -92 -63.5t-141 -22.5q-121 0 -189.5 60.5t-68.5 162.5zM238 905q31 47 147 113.5t141 66.5h2q6 -49 27 -90q-72 -39 -293 -118q-16 23 -24 28zM260 193q0 -78 46 -118t104 -40q201 0 213 272v86q-8 12 -45 13q-131 0 -224.5 -52t-93.5 -161z" />
<glyph unicode="&#xe2;" horiz-adv-x="935" d="M123 188q0 113 147.5 199t354.5 86q-4 242 -195 242q-164 0 -201 -94q-4 -4 -73 67q92 92 311 92q115 0 202 -79.5t87 -223.5q0 -14 -1 -73.5t-1 -133.5q0 -143 25.5 -184t103.5 -41q-12 -37 -13 -47q-53 4 -127 4q-16 0 -27 -1t-18.5 -1t-17.5 -3t-14 -4t-20.5 -8.5 t-24.5 -9.5v76h-7q-23 -41 -92 -63.5t-141 -22.5q-121 0 -189.5 60.5t-68.5 162.5zM166 909l12 19q178 152 217 151q14 0 68.5 -37.5t101.5 -74.5l47 -39l13 -19l-27 -22q-152 86 -203 86q-25 0 -77 -21.5t-91 -42.5l-39 -22zM260 193q0 -78 46 -118t104 -40q201 0 213 272 v86q-8 12 -45 13q-131 0 -224.5 -52t-93.5 -161z" />
<glyph unicode="&#xe3;" horiz-adv-x="935" d="M123 188q0 113 147.5 199t354.5 86q-4 242 -195 242q-164 0 -201 -94q-4 -4 -73 67q92 92 311 92q115 0 202 -79.5t87 -223.5q0 -14 -1 -73.5t-1 -133.5q0 -143 25.5 -184t103.5 -41q-12 -37 -13 -47q-53 4 -127 4q-16 0 -27 -1t-18.5 -1t-17.5 -3t-14 -4t-20.5 -8.5 t-24.5 -9.5v76h-7q-23 -41 -92 -63.5t-141 -22.5q-121 0 -189.5 60.5t-68.5 162.5zM172 924q10 41 56 85t81 44q43 0 108.5 -38t94.5 -38q25 0 42 10t35.5 28.5l20.5 20.5q4 -14 21 -26q-12 -37 -58.5 -77t-76.5 -40q-45 0 -107.5 36t-93.5 36q-25 0 -46.5 -15.5 t-39.5 -36.5l-16 -22q-4 16 -21 33zM260 193q0 -78 46 -118t104 -40q201 0 213 272v86q-8 12 -45 13q-131 0 -224.5 -52t-93.5 -161z" />
<glyph unicode="&#xe4;" horiz-adv-x="935" d="M123 188q0 113 147.5 199t354.5 86q-4 242 -195 242q-164 0 -201 -94q-4 -4 -73 67q92 92 311 92q115 0 202 -79.5t87 -223.5q0 -14 -1 -73.5t-1 -133.5q0 -143 25.5 -184t103.5 -41q-12 -37 -13 -47q-53 4 -127 4q-16 0 -27 -1t-18.5 -1t-17.5 -3t-14 -4t-20.5 -8.5 t-24.5 -9.5v76h-7q-23 -41 -92 -63.5t-141 -22.5q-121 0 -189.5 60.5t-68.5 162.5zM147 971q0 35 25 59.5t59.5 24.5t59 -24.5t24.5 -59.5t-24.5 -59.5t-59 -24.5t-59.5 24.5t-25 59.5zM260 193q0 -78 46 -118t104 -40q201 0 213 272v86q-8 12 -45 13q-131 0 -224.5 -52 t-93.5 -161zM487 971q0 35 25 59.5t59.5 24.5t59 -24.5t24.5 -59.5t-24.5 -59.5t-59 -24.5t-59.5 24.5t-25 59.5z" />
<glyph unicode="&#xe5;" horiz-adv-x="935" d="M123 188q0 113 147.5 199t354.5 86q-4 242 -195 242q-164 0 -201 -94q-4 -4 -73 67q92 92 311 92q115 0 202 -79.5t87 -223.5q0 -14 -1 -73.5t-1 -133.5q0 -143 25.5 -184t103.5 -41q-12 -37 -13 -47q-53 4 -127 4q-16 0 -27 -1t-18.5 -1t-17.5 -3t-14 -4t-20.5 -8.5 t-24.5 -9.5v76h-7q-23 -41 -92 -63.5t-141 -22.5q-121 0 -189.5 60.5t-68.5 162.5zM254 1063q0 68 46 117t109.5 49t108.5 -49.5t45 -117t-45 -117.5t-108.5 -50t-109.5 49t-46 119zM260 193q0 -78 46 -118t104 -40q201 0 213 272v86q-8 12 -45 13q-131 0 -224.5 -52 t-93.5 -161zM317 1063q0 -41 27 -70.5t66 -29.5q37 0 64.5 29.5t27.5 70.5q0 39 -28 68.5t-64.5 29.5t-64.5 -29.5t-28 -68.5z" />
<glyph unicode="&#xe6;" horiz-adv-x="1409" d="M123 127q0 109 136 206t304 124q0 63 -5 100t-20.5 78t-49 60.5t-89.5 19.5q-41 0 -67.5 -4t-56 -26.5t-46.5 -63.5q-4 -4 -73 67q55 55 116.5 73.5t163.5 18.5q158 0 226 -141q61 66 147 103.5t172 37.5q102 0 205.5 -57t103.5 -156q0 -35 -101.5 -63.5t-264 -56 t-215.5 -41.5q10 -164 107 -258.5t241 -94.5q86 0 176 39l27 -67q-147 -57 -263 -58q-227 0 -346 150q-164 -152 -301 -152q-113 0 -170 49t-57 113zM260 131q0 -39 36 -67.5t83 -28.5q63 0 118.5 72.5t63.5 183.5v86q-6 2 -9 2t-15.5 -4t-20.5 -6q-109 -18 -182.5 -75 t-73.5 -163zM713 489q80 8 151.5 25t126.5 25q117 14 117 57t-54.5 79t-144.5 36q-68 0 -124 -60.5t-72 -161.5z" />
<glyph unicode="&#xe7;" horiz-adv-x="829" d="M123 379q0 188 127 294.5t299 106.5q49 0 121.5 -17.5t99.5 -37.5l-78 -115q-23 45 -90 73t-119 28q-84 0 -149.5 -72t-65.5 -217q0 -154 106.5 -269.5t225.5 -115.5q84 0 135 41l43 -55q-100 -53 -239 -54q-170 0 -293 107.5t-123 302.5zM342 -293q0 25 15.5 45.5 t37.5 20.5q0 -16 11.5 -28.5t23.5 -14.5l12 -4q0 -12 -13 -28.5t-13 -21.5q0 -18 45 -18t77.5 36t32.5 83q0 37 -27.5 60.5t-54 36.5t-26.5 22q0 47 20 122l72 2q0 -14 -6 -51t-6 -49q0 -8 29.5 -20.5t60.5 -44t31 -91.5q0 -74 -51.5 -123t-120.5 -49q-53 0 -101.5 31 t-48.5 84z" />
<glyph unicode="&#xe8;" horiz-adv-x="964" d="M123 379v2q0 70 18 133h2q39 113 157 189.5t241 76.5q102 0 205.5 -57t103.5 -156q0 -35 -101.5 -63.5t-264 -56t-216.5 -41.5q10 -164 107.5 -258.5t240.5 -94.5q86 0 177 39l26 -67q-147 -57 -262 -58q-178 0 -301 103.5t-133 308.5zM272 489q80 8 152 25t127 25 q117 14 117 57t-54.5 79t-144.5 36q-68 0 -124 -60.5t-73 -161.5zM373 952q20 41 26 90h2q25 0 141.5 -66.5t147.5 -113.5q-8 -6 -24 -28q-221 80 -293 118z" />
<glyph unicode="&#xe9;" horiz-adv-x="964" d="M123 379v2q0 70 18 133h2q39 113 157 189.5t241 76.5q102 0 205.5 -57t103.5 -156q0 -35 -101.5 -63.5t-264 -56t-216.5 -41.5q10 -164 107.5 -258.5t240.5 -94.5q86 0 177 39l26 -67q-147 -57 -262 -58q-178 0 -301 103.5t-133 308.5zM272 489q80 8 152 25t127 25 q117 14 117 57t-54.5 79t-144.5 36q-68 0 -124 -60.5t-73 -161.5zM365 842q31 47 147 113.5t141 66.5h2q6 -49 27 -90q-72 -39 -293 -119q-16 23 -24 29z" />
<glyph unicode="&#xea;" horiz-adv-x="964" d="M123 379v2q0 70 18 133h2q39 113 157 189.5t241 76.5q102 0 205.5 -57t103.5 -156q0 -35 -101.5 -63.5t-264 -56t-216.5 -41.5q10 -164 107.5 -258.5t240.5 -94.5q86 0 177 39l26 -67q-147 -57 -262 -58q-178 0 -301 103.5t-133 308.5zM272 489q80 8 152 25t127 25 q117 14 117 57t-54.5 79t-144.5 36q-68 0 -124 -60.5t-73 -161.5zM309 838l13 18q178 152 217 152q14 0 68.5 -38t101.5 -77l47 -37l12 -18l-27 -23q-151 86 -202 86q-25 0 -77 -21.5t-91 -43.5l-39 -21z" />
<glyph unicode="&#xeb;" horiz-adv-x="964" d="M123 379v2q0 70 18 133h2q39 113 157 189.5t241 76.5q102 0 205.5 -57t103.5 -156q0 -35 -101.5 -63.5t-264 -56t-216.5 -41.5q10 -164 107.5 -258.5t240.5 -94.5q86 0 177 39l26 -67q-147 -57 -262 -58q-178 0 -301 103.5t-133 308.5zM272 489q80 8 152 25t127 25 q117 14 117 57t-54.5 79t-144.5 36q-68 0 -124 -60.5t-73 -161.5zM285 930q0 35 24.5 59.5t59 24.5t59.5 -24.5t25 -59.5t-25 -59.5t-59.5 -24.5t-59 24.5t-24.5 59.5zM625 930q0 35 24.5 59.5t59 24.5t59.5 -24.5t25 -59.5t-25 -59.5t-59.5 -24.5t-59 24.5t-24.5 59.5z" />
<glyph unicode="&#xec;" horiz-adv-x="624" d="M139 33q109 12 109 168l-2 329v11q0 43 -2 63.5t-18.5 42t-49.5 27.5q-2 12 -8 19t-8 14q2 2 30 6q31 6 74 23.5t74 32.5t35 15q10 -31 22 -43q-16 -55 -16 -106v-365q8 -147 30.5 -186t98.5 -39q-12 -37 -12 -47q-53 4 -127 4q-117 0 -213 -16q-4 16 -17 47zM154 932 q20 41 26 90h2q25 0 141.5 -66.5t147.5 -113.5q-8 -6 -25 -29q-221 80 -292 119z" />
<glyph unicode="&#xed;" horiz-adv-x="624" d="M139 33q109 12 109 168l-2 329v11q0 43 -2 63.5t-18.5 42t-49.5 27.5q-2 12 -8 19t-8 14q2 2 30 6q31 6 74 23.5t74 32.5t35 15q10 -31 22 -43q-16 -55 -16 -106v-365q8 -147 30.5 -186t98.5 -39q-12 -37 -12 -47q-53 4 -127 4q-117 0 -213 -16q-4 16 -17 47zM154 858 q31 47 147 113.5t141 66.5h2q6 -49 27 -90q-72 -39 -293 -119q-16 23 -24 29z" />
<glyph unicode="&#xee;" horiz-adv-x="624" d="M78 850l12 18q178 152 217 152q14 0 68.5 -38t101.5 -77l47 -37l13 -18l-27 -23q-152 86 -203 86q-25 0 -76 -21.5t-92 -43.5l-39 -21zM139 33q109 12 109 168l-2 329v11q0 43 -2 63.5t-18.5 42t-49.5 27.5q-2 12 -8 19t-8 14q2 2 30 6q31 6 74 23.5t74 32.5t35 15 q10 -31 22 -43q-16 -55 -16 -106v-365q8 -147 30.5 -186t98.5 -39q-12 -37 -12 -47q-53 4 -127 4q-117 0 -213 -16q-4 16 -17 47z" />
<glyph unicode="&#xef;" horiz-adv-x="624" d="M57 923.5q0 34.5 24.5 59.5t59.5 25t59.5 -25t24.5 -59.5t-24.5 -59t-59.5 -24.5t-59.5 24.5t-24.5 59zM139 33q109 12 109 168l-2 329v11q0 43 -2 63.5t-18.5 42t-49.5 27.5q-2 12 -8 19t-8 14q2 2 30 6q31 6 74 23.5t74 32.5t35 15q10 -31 22 -43q-16 -55 -16 -106 v-365q8 -147 30.5 -186t98.5 -39q-12 -37 -12 -47q-53 4 -127 4q-117 0 -213 -16q-4 16 -17 47zM397 923.5q0 34.5 24.5 59.5t59.5 25t59.5 -25t24.5 -59.5t-24.5 -59t-59.5 -24.5t-59.5 24.5t-24.5 59z" />
<glyph unicode="&#xf0;" horiz-adv-x="999" d="M123 408q0 158 98 266t289 108q141 0 225 -69l-16 43q-106 260 -189 362l-202 -117l-60 68h2l203 115q-113 117 -164 143q-18 10 -37 14l39 45q74 -25 226 -167l198 114l53 -69l-192 -109q135 -158 221 -371t86 -399q0 -193 -119.5 -305.5t-273.5 -112.5 q-158 0 -272.5 120t-114.5 321zM216 499q-17 -93 14.5 -176t95.5 -153q72 -76 144.5 -107.5t132 -22.5t102.5 50q92 88 97 242.5t-110 290.5q-82 86 -184.5 103.5t-196.5 -60.5q-78 -74 -95 -167z" />
<glyph unicode="&#xf1;" d="M137 37q109 12 109 164v329v11q0 43 -2 63.5t-18.5 42t-49.5 27.5q-2 12 -8 19t-8 14q2 2 30 6q31 6 74 22.5t74 29.5t35 13q10 -31 22 -43q-23 -55 -22 -69q18 18 50 39.5t93.5 48t112.5 26.5q147 0 229 -101t82 -259v-76q-2 -195 17.5 -247t111.5 -52q-10 -45 -10 -47 q-70 6 -154 6q-135 0 -188 -14q-6 29 -17 47q109 12 109 164v178q0 309 -229 309q-61 0 -127 -40t-78 -99q0 -63 1 -135t1 -144q0 -143 25.5 -184t103.5 -41q-12 -37 -12 -47q-53 4 -127 4q-141 0 -213 -12q-4 16 -17 47zM397 885q10 41 56.5 85t81.5 44q43 0 108.5 -38 t93.5 -38q25 0 42.5 10t36 28.5l20.5 20.5q4 -14 20 -26q-12 -37 -58 -77t-77 -40q-45 0 -107.5 36t-93.5 36q-25 0 -46 -15.5t-40 -38.5l-16 -20q-4 16 -21 33z" />
<glyph unicode="&#xf2;" horiz-adv-x="1091" d="M123 379q0 188 127 294.5t299 106.5q170 0 294 -105.5t124 -296t-128 -300t-300 -109.5q-170 0 -293 107.5t-123 302.5zM268 422q0 -154 106.5 -269.5t225.5 -115.5q102 0 159.5 94t57.5 207q0 154 -106.5 263.5t-227.5 109.5q-84 0 -149.5 -72t-65.5 -217zM391 934 q20 41 27 90h2q25 0 141.5 -66.5t147.5 -113.5q-8 -6 -25 -29q-221 80 -293 119z" />
<glyph unicode="&#xf3;" horiz-adv-x="1091" d="M123 379q0 188 127 294.5t299 106.5q170 0 294 -105.5t124 -296t-128 -300t-300 -109.5q-170 0 -293 107.5t-123 302.5zM268 422q0 -154 106.5 -269.5t225.5 -115.5q102 0 159.5 94t57.5 207q0 154 -106.5 263.5t-227.5 109.5q-84 0 -149.5 -72t-65.5 -217zM385 864 q31 47 147.5 113.5t141.5 66.5h2q6 -49 26 -90q-72 -39 -292 -118q-16 23 -25 28z" />
<glyph unicode="&#xf4;" horiz-adv-x="1091" d="M123 379q0 188 127 294.5t299 106.5q170 0 294 -105.5t124 -296t-128 -300t-300 -109.5q-170 0 -293 107.5t-123 302.5zM268 422q0 -154 106.5 -269.5t225.5 -115.5q102 0 159.5 94t57.5 207q0 154 -106.5 263.5t-227.5 109.5q-84 0 -149.5 -72t-65.5 -217zM311 829 l13 19q178 152 217 151q14 0 68.5 -37.5t101.5 -76.5l47 -37l12 -19l-27 -22q-151 86 -202 86q-25 0 -76 -21.5t-92 -44.5l-39 -20z" />
<glyph unicode="&#xf5;" horiz-adv-x="1091" d="M123 379q0 188 127 294.5t299 106.5q170 0 294 -105.5t124 -296t-128 -300t-300 -109.5q-170 0 -293 107.5t-123 302.5zM268 422q0 -154 106.5 -269.5t225.5 -115.5q102 0 159.5 94t57.5 207q0 154 -106.5 263.5t-227.5 109.5q-84 0 -149.5 -72t-65.5 -217zM315 877 q10 41 56.5 85t81.5 44q43 0 108.5 -38t93.5 -38q25 0 42.5 10t36 28.5l20.5 20.5q4 -14 20 -26q-12 -37 -58 -77t-77 -40q-45 0 -107.5 36t-93.5 36q-25 0 -46 -15.5t-40 -38.5l-16 -20q-4 16 -21 33z" />
<glyph unicode="&#xf6;" horiz-adv-x="1091" d="M123 379q0 188 127 294.5t299 106.5q170 0 294 -105.5t124 -296t-128 -300t-300 -109.5q-170 0 -293 107.5t-123 302.5zM268 422q0 -154 106.5 -269.5t225.5 -115.5q102 0 159.5 94t57.5 207q0 154 -106.5 263.5t-227.5 109.5q-84 0 -149.5 -72t-65.5 -217zM287 944 q0 35 24.5 59.5t59.5 24.5t59.5 -24.5t24.5 -59.5t-24.5 -59.5t-59.5 -24.5t-59.5 24.5t-24.5 59.5zM627 944q0 35 24.5 59.5t59 24.5t59.5 -24.5t25 -59.5t-25 -59.5t-59.5 -24.5t-59 24.5t-24.5 59.5z" />
<glyph unicode="&#xf7;" horiz-adv-x="858" d="M160 375v102h633v-102h-633zM395 217q0 35 23.5 59.5t56.5 24.5q31 0 54.5 -25.5t23.5 -58.5t-23.5 -58.5t-54.5 -25.5q-33 0 -56.5 24.5t-23.5 59.5zM395 635q0 35 23.5 59.5t56.5 24.5q31 0 55.5 -25.5t24.5 -58.5q0 -35 -23.5 -59.5t-56.5 -24.5t-56.5 24.5 t-23.5 59.5z" />
<glyph unicode="&#xf8;" horiz-adv-x="1091" d="M123 379q0 188 127 294.5t299 106.5q119 0 219 -53l49 59l96 -34l-65 -82q119 -109 119 -291q0 -190 -128 -300t-300 -110q-117 0 -217 54l-48 -58l-96 35l64 80q-119 113 -119 299zM268 422q0 -123 70 -225l348 428q-98 86 -203 86q-84 0 -149.5 -72t-65.5 -217z M403 123q97 -86 197 -86q102 0 159.5 94t57.5 207q0 115 -67 213z" />
<glyph unicode="&#xf9;" d="M160 707q2 2 30 6q31 6 74 23.5t74 32.5t35 15q10 -31 22 -43q-14 -46 -20 -370q0 -137 54 -223.5t177 -86.5q61 0 127 40t78 100q0 63 -1 135t-1 143q0 143 -25.5 184.5t-103.5 41.5q12 37 12 47q53 -4 127 -4q47 0 131 14q4 -16 17 -47q-6 -8 -9.5 -12.5t-6.5 -11.5 t-5 -11t-3 -13.5t-2 -13.5t-1 -18v-22.5v-29v-34.5v-330v-10q0 -43 2 -63.5t18.5 -42t49.5 -27.5q2 -12 8 -19.5t8 -13.5q-2 -2 -31 -6q-31 -6 -73.5 -22.5t-73.5 -30t-35 -13.5q-10 31 -22 43q23 55 22 70q-18 -18 -50 -39.5t-93.5 -48.5t-112.5 -27q-147 0 -229 101.5 t-82 259.5v200v11q0 43 -2 63.5t-18.5 42t-49.5 27.5q-2 12 -8 19t-8 14zM434 952q20 41 27 90h2q25 0 141.5 -66.5t147.5 -113.5q-8 -6 -25 -28q-221 80 -293 118z" />
<glyph unicode="&#xfa;" d="M160 707q2 2 30 6q31 6 74 23.5t74 32.5t35 15q10 -31 22 -43q-14 -46 -20 -370q0 -137 54 -223.5t177 -86.5q61 0 127 40t78 100q0 63 -1 135t-1 143q0 143 -25.5 184.5t-103.5 41.5q12 37 12 47q53 -4 127 -4q47 0 131 14q4 -16 17 -47q-6 -8 -9.5 -12.5t-6.5 -11.5 t-5 -11t-3 -13.5t-2 -13.5t-1 -18v-22.5v-29v-34.5v-330v-10q0 -43 2 -63.5t18.5 -42t49.5 -27.5q2 -12 8 -19.5t8 -13.5q-2 -2 -31 -6q-31 -6 -73.5 -22.5t-73.5 -30t-35 -13.5q-10 31 -22 43q23 55 22 70q-18 -18 -50 -39.5t-93.5 -48.5t-112.5 -27q-147 0 -229 101.5 t-82 259.5v200v11q0 43 -2 63.5t-18.5 42t-49.5 27.5q-2 12 -8 19t-8 14zM426 842q31 47 147.5 113.5t141.5 66.5h2q6 -49 26 -90q-72 -39 -292 -119q-16 23 -25 29z" />
<glyph unicode="&#xfb;" d="M160 707q2 2 30 6q31 6 74 23.5t74 32.5t35 15q10 -31 22 -43q-14 -46 -20 -370q0 -137 54 -223.5t177 -86.5q61 0 127 40t78 100q0 63 -1 135t-1 143q0 143 -25.5 184.5t-103.5 41.5q12 37 12 47q53 -4 127 -4q47 0 131 14q4 -16 17 -47q-6 -8 -9.5 -12.5t-6.5 -11.5 t-5 -11t-3 -13.5t-2 -13.5t-1 -18v-22.5v-29v-34.5v-330v-10q0 -43 2 -63.5t18.5 -42t49.5 -27.5q2 -12 8 -19.5t8 -13.5q-2 -2 -31 -6q-31 -6 -73.5 -22.5t-73.5 -30t-35 -13.5q-10 31 -22 43q23 55 22 70q-18 -18 -50 -39.5t-93.5 -48.5t-112.5 -27q-147 0 -229 101.5 t-82 259.5v200v11q0 43 -2 63.5t-18.5 42t-49.5 27.5q-2 12 -8 19t-8 14zM356 858l13 19q178 152 217 151q14 0 68.5 -38t101.5 -77l47 -36l12 -19l-27 -22q-151 86 -202 86q-25 0 -76 -21.5t-92 -44.5l-39 -20z" />
<glyph unicode="&#xfc;" d="M160 707q2 2 30 6q31 6 74 23.5t74 32.5t35 15q10 -31 22 -43q-14 -46 -20 -370q0 -137 54 -223.5t177 -86.5q61 0 127 40t78 100q0 63 -1 135t-1 143q0 143 -25.5 184.5t-103.5 41.5q12 37 12 47q53 -4 127 -4q47 0 131 14q4 -16 17 -47q-6 -8 -9.5 -12.5t-6.5 -11.5 t-5 -11t-3 -13.5t-2 -13.5t-1 -18v-22.5v-29v-34.5v-330v-10q0 -43 2 -63.5t18.5 -42t49.5 -27.5q2 -12 8 -19.5t8 -13.5q-2 -2 -31 -6q-31 -6 -73.5 -22.5t-73.5 -30t-35 -13.5q-10 31 -22 43q23 55 22 70q-18 -18 -50 -39.5t-93.5 -48.5t-112.5 -27q-147 0 -229 101.5 t-82 259.5v200v11q0 43 -2 63.5t-18.5 42t-49.5 27.5q-2 12 -8 19t-8 14zM322 938q0 35 24.5 59.5t59 24.5t59 -24.5t24.5 -59.5t-24.5 -59.5t-59 -24.5t-59 24.5t-24.5 59.5zM662 938q0 35 24.5 59.5t59 24.5t59 -24.5t24.5 -59.5t-24.5 -59.5t-59 -24.5t-59 24.5 t-24.5 59.5z" />
<glyph unicode="&#xfd;" horiz-adv-x="962" d="M-12 -414q27 6 46 24.5t25 33.5l7 14q16 0 48.5 -8t51.5 -8q66 0 123 132t57 218q0 29 -1 45t-4 32.5t-14.5 51.5t-23.5 69.5t-41 118.5t-57 168q-55 150 -86 187.5t-107 37.5q4 29 -4 48q53 -4 127 -5q96 0 187 17q6 -10 17 -25.5t15 -21.5q-94 -14 -55 -137 q111 -297 113 -299q2 -4 13 -31t20.5 -46.5t15.5 -19.5t39 82q4 14 28.5 72.5t53 131.5t49.5 134q12 59 -6.5 79.5t-77.5 20.5q31 39 33 48q51 -4 125 -5q45 0 145 17q-2 -12 -2 -26.5v-20.5q-111 -12 -176 -168l-195 -512q-123 -293 -184 -385q-96 -141 -205 -142 q-39 0 -69.5 19.5t-30.5 58.5zM322 942q31 47 147 113.5t141 66.5h2q6 -49 27 -90q-72 -39 -293 -119q-16 23 -24 29z" />
<glyph unicode="&#xfe;" horiz-adv-x="1142" d="M147 -444q53 6 80 59t29 203q0 47 -1 148.5t-1 156.5q-6 33 -6 78l-2 1003v10q0 43 -2 63.5t-18.5 42t-49.5 28.5q-2 12 -8 19t-8 13q2 2 30 6q31 6 74 23.5t74 33t35 15.5q10 -31 22 -43q-14 -45 -16 -106q-8 -262 -4 -588l14 -12q100 68 215 67q170 0 293 -107.5 t123 -301.5q0 -188 -127 -295t-299 -107q-115 0 -209 49l2 -209q0 -143 25.5 -184t103.5 -41q-12 -37 -12 -47q-53 4 -127 4q-45 0 -213 -29q-4 16 -17 48zM383 575l2 -425q76 -115 274 -115q84 0 149.5 71.5t65.5 217.5q0 154 -106 269.5t-225 115.5q-63 0 -108.5 -36 t-51.5 -98z" />
<glyph unicode="&#xff;" horiz-adv-x="962" d="M-12 -414q27 6 46 24.5t25 33.5l7 14q16 0 48.5 -8t51.5 -8q66 0 123 132t57 218q0 29 -1 45t-4 32.5t-14.5 51.5t-23.5 69.5t-41 118.5t-57 168q-55 150 -86 187.5t-107 37.5q4 29 -4 48q53 -4 127 -5q96 0 187 17q6 -10 17 -25.5t15 -21.5q-94 -14 -55 -137 q111 -297 113 -299q2 -4 13 -31t20.5 -46.5t15.5 -19.5t39 82q4 14 28.5 72.5t53 131.5t49.5 134q12 59 -6.5 79.5t-77.5 20.5q31 39 33 48q51 -4 125 -5q45 0 145 17q-2 -12 -2 -26.5v-20.5q-111 -12 -176 -168l-195 -512q-123 -293 -184 -385q-96 -141 -205 -142 q-39 0 -69.5 19.5t-30.5 58.5zM256 942q0 35 24.5 59.5t59.5 24.5t59.5 -24.5t24.5 -59.5t-24.5 -59.5t-59.5 -24.5t-59.5 24.5t-24.5 59.5zM596 942q0 35 24.5 59.5t59.5 24.5t59.5 -24.5t24.5 -59.5t-24.5 -59.5t-59.5 -24.5t-59.5 24.5t-24.5 59.5z" />
<glyph unicode="&#x152;" horiz-adv-x="2254" d="M123 676q0 297 184.5 502.5t448.5 205.5q143 0 272 -66.5t221 -182.5q-2 106 -28.5 139t-98.5 33q12 37 13 47q53 -4 127 -4q580 0 796 20q10 -45 14.5 -94t4.5 -76v-26l-47 -9q-33 115 -279 115q-178 0 -252 -2q-78 -4 -96.5 -23.5t-20.5 -103.5q-2 -221 -2 -381 q4 -12 27 -12q287 0 365 55q23 18 55 119l55 -6q0 -29 -7 -95.5t-7 -101.5q0 -74 10 -164q-31 -6 -51 -12q-4 10 -12.5 41t-18.5 54.5t-27 35.5q-25 16 -86 20.5t-118.5 -1t-110.5 -11.5t-55 -6q-14 0 -19 -6l2 -410q0 -115 17 -141q27 -49 176 -53h33q4 0 73.5 -1t95 1 t80 6t91.5 17.5t65 33.5q43 31 68 76l57 -16q-2 -37 -27.5 -109t-27.5 -107q-147 25 -711 25q-158 0 -254 -16q-4 16 -16 47q86 6 116.5 37.5t32.5 130.5v4q-186 -236 -503 -236q-260 0 -442.5 207t-182.5 500zM256 719q0 -176 67.5 -329.5t196.5 -250t291 -96.5 q209 0 323.5 165t120.5 402v49q-8 270 -150.5 461t-375.5 191q-219 0 -346 -176.5t-127 -415.5z" />
<glyph unicode="&#x153;" horiz-adv-x="1673" d="M123 379q0 188 127 294.5t299 106.5q104 0 196.5 -42t149.5 -122q61 76 154.5 121t187.5 45q102 0 205.5 -57t103.5 -156q0 -35 -101.5 -63.5t-264 -56t-215.5 -41.5q0 -4 1 -12.5t1 -12.5q16 -154 111.5 -241t234.5 -87q86 0 176 39l27 -67q-147 -57 -263 -58 q-244 0 -360 170q-57 -82 -153.5 -126t-200.5 -44q-170 0 -293 107.5t-123 302.5zM268 422q0 -154 106.5 -269.5t225.5 -115.5q102 0 159.5 94t57.5 207q0 154 -106.5 263.5t-227.5 109.5q-84 0 -149.5 -72t-65.5 -217zM969 492q80 8 151.5 24.5t126.5 24.5q117 16 117 57 q0 43 -54.5 79t-144.5 36q-68 0 -124 -60.5t-72 -160.5z" />
<glyph unicode="&#x178;" d="M61 1311q6 12 7 45q39 0 99 -2t91 -2q131 0 211 14q0 -4 -10 -29.5t-8 -29.5q-10 -2 -38 -4.5t-40.5 -9.5t-12.5 -25q0 -37 122 -271.5t151 -234.5q-6 0 55.5 103.5t129 228.5t67.5 166q0 25 -14.5 35t-48.5 12t-42 4q8 10 8 45q35 0 106 -2t103 -2q23 0 68 2t76 2 q0 -41 4 -45q-14 -6 -35 -6q-33 -2 -55.5 -14.5t-31.5 -24t-22.5 -34t-19.5 -30.5q-68 -90 -171 -273.5t-146 -246.5q0 -166 -2 -412q0 -143 25.5 -184t103.5 -41q-12 -37 -13 -47q-53 4 -127 4q-158 0 -254 -16q-4 16 -16 47q86 6 117.5 37.5t31.5 130.5v456 q-125 250 -294 545q-33 57 -74 82q-16 10 -101 27zM371 1505q0 35 24.5 59.5t59 24.5t59.5 -24.5t25 -59.5t-25 -59.5t-59.5 -24.5t-59 24.5t-24.5 59.5zM711 1505q0 35 24.5 59.5t59 24.5t59.5 -24.5t25 -59.5t-25 -59.5t-59.5 -24.5t-59 24.5t-24.5 59.5z" />
<glyph unicode="&#x2c6;" horiz-adv-x="606" d="M72 944l12 19q178 152 217 151q14 0 68.5 -38t101.5 -77l47 -36l12 -19l-26 -22q-152 86 -203 86q-25 0 -76 -21.5t-90 -44.5l-41 -20z" />
<glyph unicode="&#x2dc;" horiz-adv-x="606" d="M90 969q10 41 56.5 85t80.5 44q43 0 108.5 -38t94.5 -38q25 0 42 10t35.5 28.5l20.5 20.5q4 -14 21 -26q-12 -37 -58.5 -77t-76.5 -40q-45 0 -107.5 36t-93.5 36q-25 0 -46.5 -15.5t-39.5 -36.5l-16 -22q-4 16 -21 33z" />
<glyph unicode="&#x2000;" horiz-adv-x="879" />
<glyph unicode="&#x2001;" horiz-adv-x="1759" />
<glyph unicode="&#x2002;" horiz-adv-x="879" />
<glyph unicode="&#x2003;" horiz-adv-x="1759" />
<glyph unicode="&#x2004;" horiz-adv-x="586" />
<glyph unicode="&#x2005;" horiz-adv-x="439" />
<glyph unicode="&#x2006;" horiz-adv-x="293" />
<glyph unicode="&#x2007;" horiz-adv-x="293" />
<glyph unicode="&#x2008;" horiz-adv-x="219" />
<glyph unicode="&#x2009;" horiz-adv-x="351" />
<glyph unicode="&#x200a;" horiz-adv-x="97" />
<glyph unicode="&#x2010;" horiz-adv-x="638" d="M124 523.5q-3 17.5 7 35.5q221 98 440 129q14 -41 -32 -106q-51 -20 -151.5 -43t-176.5 -35l-76 -10q-2 2 -5 7t-6 22.5z" />
<glyph unicode="&#x2011;" horiz-adv-x="638" d="M124 523.5q-3 17.5 7 35.5q221 98 440 129q14 -41 -32 -106q-51 -20 -151.5 -43t-176.5 -35l-76 -10q-2 2 -5 7t-6 22.5z" />
<glyph unicode="&#x2012;" horiz-adv-x="638" d="M124 523.5q-3 17.5 7 35.5q221 98 440 129q14 -41 -32 -106q-51 -20 -151.5 -43t-176.5 -35l-76 -10q-2 2 -5 7t-6 22.5z" />
<glyph unicode="&#x2013;" horiz-adv-x="919" d="M98 455q47 72 78 71h518q74 1 107 15q2 0 28 16q2 -29 19 -65q-6 -8 -13.5 -20.5t-11.5 -17.5t-10 -11.5t-13 -8.5t-18 -2h-540q-61 0 -127 -39q-8 41 -17 62z" />
<glyph unicode="&#x2014;" horiz-adv-x="1269" d="M98 455q47 72 78 71h844q75 1 108 15q2 0 29 16q2 -29 19 -65q-6 -8 -13.5 -20.5t-11.5 -17.5t-10 -11.5t-13.5 -8.5t-17.5 -2h-868q-61 0 -127 -39q-8 41 -17 62z" />
<glyph unicode="&#x2018;" horiz-adv-x="387" d="M123 1202v2q0 63 64.5 146.5t127.5 83.5q23 0 23 -17v-2q-47 -10 -68.5 -50t-23.5 -79q45 -45 45 -84q0 -35 -24.5 -59.5t-59.5 -24.5t-59.5 24.5t-24.5 59.5z" />
<glyph unicode="&#x2019;" horiz-adv-x="387" d="M123 1135v2q47 10 68.5 50t23.5 79q-45 45 -45 84q0 35 24.5 59.5t59.5 24.5t59.5 -25t24.5 -59v-2q0 -63 -64.5 -146.5t-128.5 -83.5q-23 0 -22 17z" />
<glyph unicode="&#x201a;" horiz-adv-x="423" d="M74 -160q47 10 68.5 50t23.5 79q-45 45 -45 84q0 35 24.5 59.5t59.5 24.5t59.5 -24.5t24.5 -59.5v-2q0 -63 -64.5 -146t-128.5 -83q-23 0 -22 16v2z" />
<glyph unicode="&#x201c;" horiz-adv-x="641" d="M123 1202v2q0 63 64.5 146.5t127.5 83.5q23 0 23 -17v-2q-47 -10 -68.5 -50t-23.5 -79q45 -45 45 -84q0 -35 -24.5 -59.5t-59.5 -24.5t-59.5 24.5t-24.5 59.5zM381 1202v2q0 63 64.5 146.5t127.5 83.5q23 0 23 -17v-2q-47 -10 -68.5 -50t-23.5 -79q45 -45 45 -84 q0 -35 -24.5 -59.5t-59.5 -24.5t-59.5 24.5t-24.5 59.5z" />
<glyph unicode="&#x201d;" horiz-adv-x="641" d="M123 1135v2q47 10 68.5 50t23.5 79q-45 45 -45 84q0 35 24.5 59.5t59.5 24.5t59.5 -25t24.5 -59v-2q0 -63 -64.5 -146.5t-128.5 -83.5q-23 0 -22 17zM381 1135v2q47 10 68.5 50t23.5 79q-45 45 -45 84q0 35 24.5 59.5t59.5 24.5t59.5 -25t24.5 -59v-2q0 -63 -64.5 -146.5 t-128.5 -83.5q-23 0 -22 17z" />
<glyph unicode="&#x201e;" horiz-adv-x="643" d="M74 -160q47 10 68.5 50t23.5 79q-45 45 -45 84q0 35 24.5 59.5t59.5 24.5t59.5 -24.5t24.5 -59.5v-2q0 -63 -64.5 -146t-128.5 -83q-23 0 -22 16v2zM348 -160q47 10 68.5 50t23.5 79q-45 45 -45 84q0 35 24.5 59.5t59.5 24.5t59.5 -24.5t24.5 -59.5v-2q0 -63 -64.5 -146 t-127.5 -83q-23 0 -23 16v2z" />
<glyph unicode="&#x2022;" horiz-adv-x="759" d="M123 493.5q0 116.5 78 200.5t184.5 84t184 -85t77.5 -199.5t-77.5 -200.5t-184 -86t-184.5 85t-78 201.5z" />
<glyph unicode="&#x2026;" horiz-adv-x="1728" d="M121 53q0 35 24.5 59.5t59.5 24.5t59.5 -24.5t24.5 -59.5t-24.5 -59.5t-59.5 -24.5t-59.5 24.5t-24.5 59.5zM776 53q0 35 24.5 59.5t59.5 24.5t59.5 -24.5t24.5 -59.5t-24.5 -59.5t-59.5 -24.5t-59.5 24.5t-24.5 59.5zM1384 53q0 35 25 59.5t59.5 24.5t59 -24.5 t24.5 -59.5t-24.5 -59.5t-59 -24.5t-59.5 24.5t-25 59.5z" />
<glyph unicode="&#x202f;" horiz-adv-x="351" />
<glyph unicode="&#x2039;" horiz-adv-x="425" d="M86 446q168 135 285 324q16 2 41 10q-8 -49 -80 -200.5t-72 -159.5q23 -41 84.5 -174t73.5 -174q-25 4 -35 4q-20 33 -38.5 59.5t-42 54t-36 42t-42 46t-38 40t-48.5 47t-48 47.5q0 10 -4 34z" />
<glyph unicode="&#x203a;" horiz-adv-x="425" d="M86 780q25 -4 35 -4q20 -33 38.5 -59.5t42 -54t36 -42t42 -46t38 -40t48.5 -47t48 -47.5q0 -10 4 -34q-168 -135 -285 -324q-16 -2 -41 -10q8 49 80 200.5t72 159.5q-23 41 -84.5 174t-73.5 174z" />
<glyph unicode="&#x205f;" horiz-adv-x="439" />
<glyph unicode="&#x20ac;" horiz-adv-x="1331" d="M55 516l21 117h100q0 100 4 129h-80l23 117h86q63 221 236 362t386 141q70 0 175.5 -15t148.5 -15q12 0 22.5 10t20.5 10q25 0 25 -84v-37q0 -14 11 -59t15 -80q-33 -6 -53 -31q-39 233 -381 234q-176 0 -302 -123t-177 -313h731l-20 -117h-730q-4 -29 -4 -129h707 l-21 -117h-671q45 -207 185 -343t341 -136q233 0 352 119q12 -43 54 -70q-51 -37 -82 -55.5t-119 -42t-199 -23.5q-254 0 -440.5 146.5t-229.5 404.5h-135z" />
<glyph unicode="&#x2122;" horiz-adv-x="1222" d="M63 1305q0 25 7.5 52t7.5 46q0 6 -2 13t-2 11q18 4 45 5q8 0 92 -9q133 0 245.5 2t116.5 2q37 0 51.5 -11t20.5 -38q31 -63 92.5 -159.5t93.5 -169.5q174 330 175 348q0 10 1 14t8 9t21 5h113q0 -20 6 -30q-6 -2 -20.5 -5.5t-19.5 -7.5t-11 -20t-6 -49q0 -150 1 -227.5 t1 -86.5q0 -25 3 -40t15 -27t35 -17q-6 -25 -6 -41q-29 0 -57.5 2.5t-36.5 2.5q-10 0 -44 -2.5t-53 -2.5l-4 41q47 8 47 78q0 45 1 116t-1 97q-16 -37 -55 -107.5t-65.5 -124.5t-34.5 -89q0 -25 -35 -25q-37 0 -37 25q-8 25 -35.5 81t-67.5 132t-59 112q-6 -133 -6 -200 q0 -92 49 -92h17q0 -18 -11 -44q-16 0 -50 2.5t-46 2.5q-8 0 -34.5 -2.5t-55.5 -2.5q0 25 -6 44q47 0 63 32q19 43 19 383q0 12 -7 20.5t-20.5 12.5t-27 7t-32 4t-29.5 1h-24.5h-15.5q-12 0 -18 -2t-10.5 -10t-4.5 -27v-358q0 -25 5.5 -39t18.5 -19t16 -5h16q-4 -14 -4 -46 q-14 0 -49 2.5t-50 2.5q-10 0 -45 -2.5t-49 -2.5l-8 41q16 2 24.5 6.5t18.5 23t10 50.5q0 123 -1 201t-1 129q0 27 -10 39t-21.5 14t-35.5 2q-31 0 -56.5 -16t-25.5 -55q-37 0 -50 -2z" />
<glyph unicode="&#xe000;" horiz-adv-x="757" d="M0 0v758h758v-758h-758z" />
</font>
</defs>
</svg>
